<?xml version="1.0" encoding="UTF-8" standalone="no"?>
<!-- Created with Inkscape (http://www.inkscape.org/) -->

<svg
   width="92.299301mm"
   height="108.19118mm"
   viewBox="0 0 92.299301 108.19118"
   version="1.1"
   id="svg5"
   inkscape:version="1.1 (c68e22c387, 2021-05-23)"
   sodipodi:docname="cobra-colored.svg"
   xmlns:inkscape="http://www.inkscape.org/namespaces/inkscape"
   xmlns:sodipodi="http://sodipodi.sourceforge.net/DTD/sodipodi-0.dtd"
   xmlns="http://www.w3.org/2000/svg"
   xmlns:svg="http://www.w3.org/2000/svg">
  <sodipodi:namedview
     id="namedview7"
     pagecolor="#ffffff"
     bordercolor="#666666"
     borderopacity="1.0"
     inkscape:pageshadow="2"
     inkscape:pageopacity="0.0"
     inkscape:pagecheckerboard="0"
     inkscape:document-units="mm"
     showgrid="false"
     inkscape:zoom="1.4142136"
     inkscape:cx="178.1909"
     inkscape:cy="213.8998"
     inkscape:window-width="1366"
     inkscape:window-height="705"
     inkscape:window-x="-8"
     inkscape:window-y="-8"
     inkscape:window-maximized="1"
     inkscape:current-layer="layer1"
     showguides="false" />
  <defs
     id="defs2">
    <inkscape:path-effect
       effect="mirror_symmetry"
       start_point="416.62867,554.7163"
       end_point="416.62867,916.47906"
       center_point="416.62867,735.59768"
       id="path-effect11047"
       is_visible="true"
       lpeversion="1.1"
       mode="free"
       discard_orig_path="false"
       fuse_paths="false"
       oposite_fuse="false"
       split_items="false"
       split_open="false" />
    <inkscape:path-effect
       effect="mirror_symmetry"
       start_point="416.62866,511.349"
       end_point="416.62866,916.47904"
       center_point="416.62866,713.91402"
       id="path-effect10029"
       is_visible="true"
       lpeversion="1.1"
       mode="free"
       discard_orig_path="false"
       fuse_paths="false"
       oposite_fuse="false"
       split_items="false"
       split_open="false" />
    <inkscape:path-effect
       effect="mirror_symmetry"
       start_point="416.62866,511.349"
       end_point="416.62866,916.47904"
       center_point="416.62866,713.91402"
       id="path-effect9858"
       is_visible="true"
       lpeversion="1.1"
       mode="free"
       discard_orig_path="false"
       fuse_paths="false"
       oposite_fuse="false"
       split_items="false"
       split_open="false" />
    <inkscape:path-effect
       effect="mirror_symmetry"
       start_point="406.62595,683.12031"
       end_point="406.62595,909.71848"
       center_point="406.62595,796.41939"
       id="path-effect2954"
       is_visible="true"
       lpeversion="1.1"
       mode="free"
       discard_orig_path="false"
       fuse_paths="false"
       oposite_fuse="false"
       split_items="false"
       split_open="false" />
    <inkscape:path-effect
       effect="bspline"
       id="path-effect1242"
       is_visible="true"
       lpeversion="1"
       weight="33.33"
       steps="2"
       helper_size="0"
       apply_no_weight="true"
       apply_with_weight="true"
       only_selected="false" />
    <inkscape:path-effect
       effect="bspline"
       id="path-effect1213"
       is_visible="true"
       lpeversion="1"
       weight="33.33"
       steps="2"
       helper_size="0"
       apply_no_weight="true"
       apply_with_weight="true"
       only_selected="false" />
    <inkscape:path-effect
       effect="bspline"
       id="path-effect1184"
       is_visible="true"
       lpeversion="1"
       weight="33.33"
       steps="2"
       helper_size="0"
       apply_no_weight="true"
       apply_with_weight="true"
       only_selected="false" />
    <inkscape:path-effect
       effect="bspline"
       id="path-effect1155"
       is_visible="true"
       lpeversion="1"
       weight="33.33"
       steps="2"
       helper_size="0"
       apply_no_weight="true"
       apply_with_weight="true"
       only_selected="false" />
    <inkscape:path-effect
       effect="bspline"
       id="path-effect1126"
       is_visible="true"
       lpeversion="1"
       weight="33.33"
       steps="2"
       helper_size="0"
       apply_no_weight="true"
       apply_with_weight="true"
       only_selected="false" />
    <inkscape:path-effect
       effect="bspline"
       id="path-effect1097"
       is_visible="true"
       lpeversion="1"
       weight="33.33"
       steps="2"
       helper_size="0"
       apply_no_weight="true"
       apply_with_weight="true"
       only_selected="false" />
    <inkscape:path-effect
       effect="bspline"
       id="path-effect1068"
       is_visible="true"
       lpeversion="1"
       weight="33.33"
       steps="2"
       helper_size="0"
       apply_no_weight="true"
       apply_with_weight="true"
       only_selected="false" />
    <inkscape:path-effect
       effect="bspline"
       id="path-effect960"
       is_visible="true"
       lpeversion="1"
       weight="33.33"
       steps="2"
       helper_size="0"
       apply_no_weight="true"
       apply_with_weight="true"
       only_selected="false" />
    <inkscape:path-effect
       effect="mirror_symmetry"
       start_point="107.58721,136.43437"
       end_point="107.58721,178.10517"
       center_point="107.58721,157.26977"
       id="path-effect16568"
       is_visible="true"
       lpeversion="1.1"
       mode="free"
       discard_orig_path="false"
       fuse_paths="false"
       oposite_fuse="false"
       split_items="false"
       split_open="false" />
    <inkscape:path-effect
       effect="bspline"
       id="path-effect15937"
       is_visible="true"
       lpeversion="1"
       weight="10"
       steps="2"
       helper_size="0"
       apply_no_weight="true"
       apply_with_weight="true"
       only_selected="false" />
    <inkscape:path-effect
       effect="bspline"
       id="path-effect15212"
       is_visible="true"
       lpeversion="1"
       weight="10"
       steps="2"
       helper_size="0"
       apply_no_weight="true"
       apply_with_weight="true"
       only_selected="false" />
    <inkscape:path-effect
       effect="mirror_symmetry"
       start_point="416.62866,511.349"
       end_point="416.62866,916.47904"
       center_point="416.62866,713.91402"
       id="path-effect11787"
       is_visible="true"
       lpeversion="1.1"
       mode="free"
       discard_orig_path="false"
       fuse_paths="false"
       oposite_fuse="false"
       split_items="false"
       split_open="false" />
    <inkscape:path-effect
       effect="mirror_symmetry"
       start_point="110.233,135.29442"
       end_point="110.233,234.45865"
       center_point="110.233,184.87654"
       id="path-effect10035"
       is_visible="true"
       lpeversion="1.1"
       mode="free"
       discard_orig_path="false"
       fuse_paths="false"
       oposite_fuse="false"
       split_items="false"
       split_open="false" />
    <inkscape:path-effect
       effect="bspline"
       id="path-effect8038"
       is_visible="true"
       lpeversion="1"
       weight="33.333333"
       steps="2"
       helper_size="0"
       apply_no_weight="true"
       apply_with_weight="true"
       only_selected="false" />
    <inkscape:path-effect
       effect="bspline"
       id="path-effect8036"
       is_visible="true"
       lpeversion="1"
       weight="33.333333"
       steps="2"
       helper_size="0"
       apply_no_weight="true"
       apply_with_weight="true"
       only_selected="false" />
    <inkscape:path-effect
       effect="bspline"
       id="path-effect7806"
       is_visible="true"
       lpeversion="1"
       weight="33.333333"
       steps="2"
       helper_size="0"
       apply_no_weight="true"
       apply_with_weight="true"
       only_selected="false" />
    <inkscape:path-effect
       effect="bspline"
       id="path-effect7690"
       is_visible="true"
       lpeversion="1"
       weight="33.333333"
       steps="2"
       helper_size="0"
       apply_no_weight="true"
       apply_with_weight="true"
       only_selected="false" />
    <inkscape:path-effect
       effect="bspline"
       id="path-effect7612"
       is_visible="true"
       lpeversion="1"
       weight="33.333333"
       steps="2"
       helper_size="0"
       apply_no_weight="true"
       apply_with_weight="true"
       only_selected="false" />
    <inkscape:path-effect
       effect="bspline"
       id="path-effect6467"
       is_visible="true"
       lpeversion="1"
       weight="33.333333"
       steps="2"
       helper_size="0"
       apply_no_weight="true"
       apply_with_weight="true"
       only_selected="false" />
    <inkscape:path-effect
       effect="bspline"
       id="path-effect5473"
       is_visible="true"
       lpeversion="1"
       weight="33.333333"
       steps="2"
       helper_size="0"
       apply_no_weight="true"
       apply_with_weight="true"
       only_selected="false" />
    <inkscape:path-effect
       effect="bspline"
       id="path-effect4803"
       is_visible="true"
       lpeversion="1"
       weight="33.333333"
       steps="2"
       helper_size="0"
       apply_no_weight="true"
       apply_with_weight="true"
       only_selected="false" />
    <inkscape:path-effect
       effect="bspline"
       id="path-effect4725"
       is_visible="true"
       lpeversion="1"
       weight="33.333333"
       steps="2"
       helper_size="0"
       apply_no_weight="true"
       apply_with_weight="true"
       only_selected="false" />
    <inkscape:path-effect
       effect="bspline"
       id="path-effect2630"
       is_visible="true"
       lpeversion="1"
       weight="33.333333"
       steps="2"
       helper_size="0"
       apply_no_weight="true"
       apply_with_weight="true"
       only_selected="false" />
    <inkscape:path-effect
       effect="bspline"
       id="path-effect2571"
       is_visible="true"
       lpeversion="1"
       weight="33.333333"
       steps="2"
       helper_size="0"
       apply_no_weight="true"
       apply_with_weight="true"
       only_selected="false" />
    <inkscape:path-effect
       effect="mirror_symmetry"
       start_point="110.233,134.79231"
       end_point="110.233,181.34135"
       center_point="110.233,158.06683"
       id="path-effect2569"
       is_visible="true"
       lpeversion="1.1"
       mode="free"
       discard_orig_path="false"
       fuse_paths="false"
       oposite_fuse="false"
       split_items="false"
       split_open="false" />
    <inkscape:path-effect
       effect="bspline"
       id="path-effect2355"
       is_visible="true"
       lpeversion="1"
       weight="33.333333"
       steps="2"
       helper_size="0"
       apply_no_weight="true"
       apply_with_weight="true"
       only_selected="false" />
    <inkscape:path-effect
       effect="mirror_symmetry"
       start_point="109.71746,135.36346"
       end_point="109.71746,235.02981"
       center_point="109.71746,185.19664"
       id="path-effect2353"
       is_visible="true"
       lpeversion="1.1"
       mode="free"
       discard_orig_path="false"
       fuse_paths="false"
       oposite_fuse="false"
       split_items="false"
       split_open="false" />
    <inkscape:path-effect
       effect="bspline"
       id="path-effect2098"
       is_visible="true"
       lpeversion="1"
       weight="33.333333"
       steps="2"
       helper_size="0"
       apply_no_weight="true"
       apply_with_weight="true"
       only_selected="false" />
  </defs>
  <g
     inkscape:label="Слой 1"
     inkscape:groupmode="layer"
     id="layer1"
     transform="translate(-61.437515,-134.79388)">
    <path
       id="path11472-5"
       style="fill:#552200;stroke:#552200;stroke-width:3.77953;stroke-linecap:round;stroke-linejoin:miter;stroke-miterlimit:4;stroke-dasharray:none;stroke-opacity:1"
       transform="matrix(0.26458333,0,0,0.26458333,-2.6458387,5.2916666e-6)"
       d="m 316.24819,886.14425 c 34.94626,23.65152 69.77717,30.91133 100.38048,30.29964 M 316.24819,886.14424 c -10.07169,-20.8628 -20.14546,-41.7315 -31.83827,-64.75755 -11.69281,-23.02606 -25.00475,-48.21079 -32.20144,-68.53871 -7.19669,-20.32793 -8.27605,-35.79855 -8.09645,-50.90971 0.17959,-15.11119 1.61871,-29.86224 6.29566,-45.87337 4.67694,-16.01114 12.59214,-33.28067 23.02601,-50.19104 9.60985,-15.57482 20.72645,-30.44341 32.54212,-45.62555 1.01316,-1.30182 2.97589,-4.22494 3.99882,-5.53201 h 106.65402 l 10e-6,361.72759 m 100.38048,-30.29964 c -34.94626,23.65152 -69.77717,30.91133 -100.38048,30.29964 m 100.38048,-30.29965 c 10.07169,-20.8628 20.14546,-41.7315 31.83827,-64.75755 11.69281,-23.02606 25.00475,-48.21079 32.20144,-68.53871 7.19669,-20.32793 8.27605,-35.79855 8.09645,-50.90971 -0.17959,-15.11119 -1.61871,-29.86224 -6.29566,-45.87337 -4.67694,-16.01114 -12.59214,-33.28067 -23.02601,-50.19104 -9.60985,-15.57482 -20.72645,-30.44341 -32.54212,-45.62555 -1.01316,-1.30182 -2.97589,-4.22494 -3.99882,-5.53201 H 416.62868 l -10e-6,361.72759"
       inkscape:path-effect="#path-effect11047"
       inkscape:original-d="m 316.24819,886.14425 c 34.94626,23.65152 69.77717,30.91133 100.38048,30.29964 M 316.24819,886.14424 c -10.07169,-20.8628 -20.14546,-41.7315 -31.83827,-64.75755 -11.69281,-23.02606 -25.00475,-48.21079 -32.20144,-68.53871 -7.19669,-20.32793 -8.27605,-35.79855 -8.09645,-50.90971 0.17959,-15.11119 1.61871,-29.86224 6.29566,-45.87337 4.67694,-16.01114 12.59214,-33.28067 23.02601,-50.19104 9.60985,-15.57482 20.72645,-30.44341 32.54212,-45.62555 1.01316,-1.30182 2.97589,-4.22494 3.99882,-5.53201 h 106.65402 l 10e-6,361.72759" />
    <path
       style="fill:none;stroke:#000000;stroke-width:3.77953;stroke-linecap:round;stroke-linejoin:miter;stroke-miterlimit:4;stroke-dasharray:none;stroke-opacity:1"
       inkscape:path-effect="#path-effect11787"
       inkscape:original-d="m 416.62867,685.38464 c -11.86882,-2.51754 -23.74201,-5.03603 -32.55693,-8.45288 -8.81495,-3.4168 -14.57144,-7.73416 -19.60911,-13.31017 -5.03768,-5.57598 -9.35507,-12.41186 -14.03233,-20.14715 -4.67725,-7.73529 -9.71418,-16.37004 -14.93133,-26.80369 -5.21713,-10.43361 -10.61385,-22.66617 -15.4709,-33.63954 -4.85705,-10.97333 -9.17444,-20.68747 -10.0753,-28.96369 -0.90085,-8.27618 1.61763,-15.11206 5.57617,-20.1504 3.95854,-5.03834 9.35527,-8.27637 17.09094,-12.05412 7.73567,-3.77775 17.80956,-8.09514 28.06449,-9.71358 10.25494,-1.61839 20.6886,-0.53903 30.04331,1.08034 9.35471,1.61938 17.63006,3.77806 25.90099,5.9356"
       transform="matrix(0.26458333,0,0,0.26458333,-2.6458334,0)"
       d="m 416.62867,685.38464 c -11.86882,-2.51754 -23.74201,-5.03603 -32.55693,-8.45288 -8.81495,-3.4168 -14.57144,-7.73416 -19.60911,-13.31017 -5.03768,-5.57598 -9.35507,-12.41186 -14.03233,-20.14715 -4.67725,-7.73529 -9.71418,-16.37004 -14.93133,-26.80369 -5.21713,-10.43361 -10.61385,-22.66617 -15.4709,-33.63954 -4.85705,-10.97333 -9.17444,-20.68747 -10.0753,-28.96369 -0.90085,-8.27618 1.61763,-15.11206 5.57617,-20.1504 3.95854,-5.03834 9.35527,-8.27637 17.09094,-12.05412 7.73567,-3.77775 17.80956,-8.09514 28.06449,-9.71358 10.25494,-1.61839 20.6886,-0.53903 30.04331,1.08034 9.35471,1.61938 17.63006,3.77806 25.90099,5.9356 m -2e-5,166.21928 c 11.86882,-2.51754 23.74201,-5.03603 32.55693,-8.45288 8.81495,-3.4168 14.57144,-7.73416 19.60911,-13.31017 5.03768,-5.57598 9.35507,-12.41186 14.03233,-20.14715 4.67725,-7.73529 9.71418,-16.37004 14.93133,-26.80369 5.21713,-10.43361 10.61385,-22.66617 15.4709,-33.63954 4.85705,-10.97333 9.17444,-20.68747 10.0753,-28.96369 0.90085,-8.27618 -1.61763,-15.11206 -5.57617,-20.1504 -3.95854,-5.03834 -9.35527,-8.27637 -17.09094,-12.05412 -7.73567,-3.77775 -17.80956,-8.09514 -28.06449,-9.71358 -10.25494,-1.61839 -20.6886,-0.53903 -30.04331,1.08034 -9.35471,1.61938 -17.63006,3.77806 -25.90099,5.9356"
       id="path16400" />
    <path
       style="fill:#ffffff;stroke:#000000;stroke-width:3.77953;stroke-linecap:round;stroke-linejoin:miter;stroke-miterlimit:4;stroke-dasharray:none;stroke-opacity:1"
       inkscape:path-effect="#path-effect11787"
       inkscape:original-d="m 348.09027,572.23647 c -4.13947,0.17877 -6.65794,8.09416 -5.21668,15.11074 1.44127,7.01658 6.838,13.13287 11.87531,16.54911 5.03731,3.41628 9.71448,4.13583 11.15203,0.89968 1.43755,-3.23614 -0.36136,-10.43176 -4.13802,-17.80743 -3.77666,-7.37564 -9.53316,-14.93106 -13.67264,-14.7521 z"
       transform="matrix(0.26458333,0,0,0.26458333,-2.6458334,0)"
       d="m 348.09027,572.23647 c -4.13947,0.17877 -6.65794,8.09416 -5.21668,15.11074 1.44127,7.01658 6.838,13.13287 11.87531,16.54911 5.03731,3.41628 9.71448,4.13583 11.15203,0.89968 1.43755,-3.23614 -0.36136,-10.43176 -4.13802,-17.80743 -3.77666,-7.37564 -9.53316,-14.93106 -13.67264,-14.7521 z m 137.07678,0 c 4.13947,0.17877 6.65794,8.09416 5.21668,15.11074 -1.44127,7.01658 -6.838,13.13287 -11.87531,16.54911 -5.03731,3.41628 -9.71448,4.13583 -11.15203,0.89968 -1.43755,-3.23614 0.36136,-10.43176 4.13802,-17.80743 3.77666,-7.37564 9.53316,-14.93106 13.67264,-14.7521 z"
       id="path16398" />
    <path
       style="fill:none;stroke:#000000;stroke-width:3.77953;stroke-linecap:round;stroke-linejoin:miter;stroke-miterlimit:4;stroke-dasharray:none;stroke-opacity:1"
       inkscape:path-effect="#path-effect11787"
       inkscape:original-d="m 309.97464,554.71632 c -1.02293,1.30707 -2.98566,4.23019 -3.99882,5.53201 -11.81567,15.18214 -22.93227,30.05073 -32.54212,45.62555 -10.43387,16.91037 -18.34907,34.1799 -23.02601,50.19104 -4.67695,16.01113 -6.11607,30.76218 -6.29566,45.87337 -0.1796,15.11116 0.89976,30.58178 8.09645,50.90971 7.19669,20.32792 20.50863,45.51265 32.20144,68.53871 11.69281,23.02605 21.76658,43.89475 31.83827,64.75755"
       transform="matrix(0.26458333,0,0,0.26458333,-2.6458334,0)"
       d="m 309.97464,554.71632 c -1.02293,1.30707 -2.98566,4.23019 -3.99882,5.53201 -11.81567,15.18214 -22.93227,30.05073 -32.54212,45.62555 -10.43387,16.91037 -18.34907,34.1799 -23.02601,50.19104 -4.67695,16.01113 -6.11607,30.76218 -6.29566,45.87337 -0.1796,15.11116 0.89976,30.58178 8.09645,50.90971 7.19669,20.32792 20.50863,45.51265 32.20144,68.53871 11.69281,23.02605 21.76658,43.89475 31.83827,64.75755 M 523.28268,554.71632 c 1.02293,1.30707 2.98566,4.23019 3.99882,5.53201 11.81567,15.18214 22.93227,30.05073 32.54212,45.62555 10.43387,16.91037 18.34907,34.1799 23.02601,50.19104 4.67695,16.01113 6.11607,30.76218 6.29566,45.87337 0.1796,15.11116 -0.89976,30.58178 -8.09645,50.90971 -7.19669,20.32792 -20.50863,45.51265 -32.20144,68.53871 -11.69281,23.02605 -21.76658,43.89475 -31.83827,64.75755"
       id="path16396" />
    <path
       style="fill:none;stroke:#000000;stroke-width:3.77953;stroke-linecap:round;stroke-linejoin:miter;stroke-miterlimit:4;stroke-dasharray:none;stroke-opacity:1"
       inkscape:path-effect="#path-effect11787"
       inkscape:original-d="m 316.24819,886.14425 c 34.94626,23.65152 69.77717,30.91133 100.38048,30.29964"
       transform="matrix(0.26458333,0,0,0.26458333,-2.6458334,0)"
       d="m 316.24819,886.14425 c 34.94626,23.65152 69.77717,30.91133 100.38048,30.29964 m 100.38046,-30.29964 c -34.94626,23.65152 -69.77717,30.91133 -100.38048,30.29964"
       id="path11472" />
    <path
       id="path15778"
       style="fill:none;stroke:#000000;stroke-width:0.5;stroke-linecap:round;stroke-linejoin:miter;stroke-miterlimit:4;stroke-dasharray:none;stroke-opacity:1"
       d="m 86.172835,138.07644 c 0.086,0.30818 0.771389,2.76414 0.585525,3.24913 -0.185863,0.485 -3.841247,5.79673 -4.176689,6.22139 -0.335441,0.42466 -2.048902,1.90966 -2.263163,2.09535 m 8.710097,-9.13847 -0.285578,-3.49831 m 2.498799,23.13173 c -0.200053,0.29294 -1.79928,2.63466 -1.884811,2.89569 -0.08553,0.26104 0.142929,2.08874 0.339646,2.42071 0.196717,0.33197 3.1096,3.81603 3.472808,4.25046 m -6.068507,-23.9171 c -0.178521,0.1928 -1.606411,1.73492 -1.709949,2.01379 -0.103538,0.27888 -0.331998,3.19177 -0.169279,3.66876 0.16272,0.47699 2.988499,5.19391 3.341014,5.78234 m 5.891818,-16.24831 c -0.54908,-0.0646 -4.950533,-0.58218 -5.304586,-0.45353 -0.354054,0.12865 -1.607024,2.70242 -1.699568,2.97417 -0.09254,0.27174 -0.321003,2.04232 -0.111058,2.49686 0.209945,0.45454 3.790605,5.95423 4.237432,6.64053 m 10.516964,-16.22726 c -0.52786,0.2354 -4.754395,2.1202 -5.136569,2.34875 -0.382174,0.22855 -2.266983,1.99913 -2.433473,2.37221 -0.166491,0.37309 -0.944117,4.56536 -1.041174,5.0886 m 10.253286,7.96761 c -0.43492,0.14973 -3.918959,1.34915 -4.375996,1.55263 -0.457037,0.20348 -4.283769,2.25963 -4.76247,2.51684 m 10.538876,-13.75826 c -0.4662,-0.0643 -4.2057,-0.58053 -4.62133,-0.59525 -0.41563,-0.0147 -3.323472,0.26799 -3.674005,0.37386 -0.350533,0.10587 -3.047061,1.51796 -3.266941,1.79985 -0.21988,0.28189 -1.036992,3.37291 -1.130979,3.70616 -0.09399,0.33325 -0.780562,2.57471 -0.866189,2.85426 m 15.978624,16.72118 c -0.003,-2.47657 -0.0239,-22.29717 -0.0223,-23.89819 0.002,-1.60102 0.0483,-7.39667 0.0541,-8.12212 m -0.14565,18.08288 c -0.30154,-0.005 -2.72196,-0.043 -3.02556,-0.3182 -0.30359,-0.2752 -2.7378,-4.64952 -2.73546,-5.20162 0.002,-0.55211 2.48002,-5.00323 2.78876,-5.27007 0.30873,-0.26684 2.75478,-0.0726 3.05947,-0.0484 m -12.503053,20.74197 c 0.250753,0.31523 2.249799,2.82831 2.338549,3.26726 0.08875,0.43895 -0.482405,4.95107 -0.553691,5.51423 m -3.641106,-4.42645 4.997598,6.13991 m -6.139905,-3.21274 c 0.284923,-0.74865 2.565969,-6.7422 2.894506,-7.1957 0.328538,-0.45351 3.29854,-1.71005 3.923715,-1.79228 0.625176,-0.0822 7.653927,-0.14295 8.531537,-0.15053 m -9.742131,14.61241 c 0.151264,-0.54455 1.362863,-4.90631 1.859252,-5.34287 0.496389,-0.43656 7.221289,-3.05274 8.061369,-3.37956 m 21.44617,-31.30632 c -0.086,0.30818 -0.77138,2.76414 -0.58552,3.24913 0.18586,0.485 3.84125,5.79673 4.17669,6.22139 0.33544,0.42466 2.0489,1.90966 2.26316,2.09535 m -8.7101,-9.13847 0.28558,-3.49831 m -2.4988,23.13173 c 0.20006,0.29294 1.79928,2.63466 1.88482,2.89569 0.0855,0.26104 -0.14293,2.08874 -0.33965,2.42071 -0.19672,0.33197 -3.1096,3.81603 -3.47281,4.25046 m 6.06851,-23.9171 c 0.17852,0.1928 1.60641,1.73492 1.70995,2.01379 0.10354,0.27888 0.332,3.19177 0.16928,3.66876 -0.16272,0.47699 -2.9885,5.19391 -3.34102,5.78234 m -5.89182,-16.24831 c 0.54908,-0.0646 4.95054,-0.58218 5.30459,-0.45353 0.35405,0.12865 1.60702,2.70242 1.69957,2.97417 0.0925,0.27174 0.321,2.04232 0.11106,2.49686 -0.20995,0.45454 -3.79061,5.95423 -4.23744,6.64053 m -10.51696,-16.22726 c 0.52786,0.2354 4.7544,2.1202 5.13657,2.34875 0.38217,0.22855 2.26698,1.99913 2.43347,2.37221 0.16649,0.37309 0.94412,4.56536 1.04118,5.0886 m -10.25329,7.96761 c 0.43492,0.14973 3.91896,1.34915 4.376,1.55263 0.45703,0.20348 4.28376,2.25963 4.76247,2.51684 m -10.53888,-13.75826 c 0.4662,-0.0643 4.2057,-0.58053 4.62133,-0.59525 0.41563,-0.0147 3.32347,0.26799 3.67401,0.37386 0.35053,0.10587 3.04706,1.51796 3.26694,1.79985 0.21988,0.28189 1.03699,3.37291 1.13097,3.70616 0.094,0.33325 0.78057,2.57471 0.86619,2.85426 m -15.97862,16.72118 c 0.003,-2.47657 0.0239,-22.29717 0.0224,-23.89819 -0.002,-1.60102 -0.0483,-7.39667 -0.0542,-8.12212 m 0.14565,18.08288 c 0.30154,-0.005 2.72196,-0.043 3.02556,-0.3182 0.30359,-0.2752 2.7378,-4.64952 2.73546,-5.20162 -0.002,-0.55211 -2.48002,-5.00323 -2.78876,-5.27007 -0.30873,-0.26684 -2.75478,-0.0726 -3.05947,-0.0484 m 12.50305,20.74197 c -0.25075,0.31523 -2.2498,2.82831 -2.33855,3.26726 -0.0887,0.43895 0.48241,4.95107 0.55369,5.51423 m 3.64111,-4.42645 -4.9976,6.13991 m 6.13991,-3.21274 c -0.28493,-0.74865 -2.56597,-6.7422 -2.89451,-7.1957 -0.32854,-0.45351 -3.29854,-1.71005 -3.92371,-1.79228 -0.62518,-0.0822 -7.65393,-0.14295 -8.53154,-0.15053 m 9.74213,14.61241 c -0.15126,-0.54455 -1.36286,-4.90631 -1.85925,-5.34287 -0.49639,-0.43656 -7.22129,-3.05274 -8.06137,-3.37956"
       sodipodi:nodetypes="cccccccccccccccccccccccccccccccccccccccccccccccccccc"
       inkscape:original-d="m 86.172835,138.07644 c 0.08667,0.30799 0.772059,2.76395 0.856732,3.06995 -0.455923,0.66497 -4.11131,5.9767 -4.569233,6.63967 -0.213183,0.18662 -1.926643,1.67162 -2.141826,1.85625 m 8.710097,-9.13847 c -0.02756,-0.34883 -0.25602,-3.14748 -0.285578,-3.49831 m 2.498799,23.13173 c -0.198904,0.29372 -1.798134,2.63544 -1.999038,2.92716 0.02956,0.22946 0.258018,2.05716 0.285575,2.28462 0.365111,0.43651 3.277995,3.92057 3.641106,4.35508 m -6.068507,-23.9171 c -0.177486,0.19376 -1.605372,1.73588 -1.784858,1.92764 -0.02756,0.36511 -0.256017,3.278 -0.285575,3.64111 0.354222,0.59061 3.179997,5.30753 3.532219,5.89614 m 5.891818,-16.24831 c -0.549182,-0.0637 -4.950635,-0.58131 -5.501817,-0.64701 -0.155621,0.32272 -1.408591,2.89649 -1.566212,3.21721 -0.02756,0.22232 -0.256017,1.9929 -0.285575,2.21322 0.448582,0.68846 4.029242,6.18815 4.475824,6.87461 m 10.516964,-16.22726 c -0.52732,0.2366 -4.753857,2.12141 -5.283175,2.35601 -0.234601,0.22232 -2.119408,1.9929 -2.356009,2.21322 -0.0962,0.52503 -0.873829,4.7173 -0.972032,5.24033 m 10.253286,7.96761 c -0.43451,0.15093 -3.918546,1.35035 -4.355051,1.49928 -0.477341,0.25802 -4.304073,2.31417 -4.783415,2.57019 m 10.538876,-13.75826 c -0.46623,-0.0641 -4.20573,-0.5803 -4.67438,-0.64522 -0.36248,0.0363 -3.270317,0.31904 -3.634797,0.35338 -0.336066,0.17751 -3.032592,1.58961 -3.370658,1.76512 -0.101139,0.38738 -0.918252,3.4784 -1.021391,3.86378 -0.08482,0.28118 -0.771396,2.52264 -0.858218,2.80182 m 15.978624,16.72118 c -0.002,-2.47657 -0.0229,-22.29717 -0.0266,-24.77574 0.007,-0.72346 0.0536,-6.51911 0.0584,-7.24457 m -0.14565,18.08288 c -0.30155,-0.004 -2.72198,-0.042 -3.02553,-0.0478 -0.30328,-0.54579 -2.73749,-4.92011 -3.04277,-5.4679 0.30994,-0.55605 2.78762,-5.00717 3.09794,-5.5654 0.30681,0.0246 2.75286,0.21887 3.05757,0.24283 m -12.503053,20.74197 c 0.25088,0.31513 2.249922,2.82821 2.498802,3.14134 -0.07039,0.56501 -0.64155,5.07713 -0.713944,5.64015 m -3.641106,-4.42645 c 0.50076,0.61499 4.498838,5.52692 4.997598,6.13991 m -6.139905,-3.21274 c 0.28613,-0.74819 2.567174,-6.74174 2.851304,-7.49193 0.37225,-0.15607 3.342253,-1.41261 3.712503,-1.57068 0.879595,-0.007 7.908351,-0.0673 8.785951,-0.0759 m -9.742131,14.61241 c 0.15245,-0.54422 1.364049,-4.90598 1.514499,-5.4522 0.841612,-0.32602 7.566512,-2.94221 8.406122,-3.27023"
       inkscape:path-effect="#path-effect15937;#path-effect16568" />
    <path
       id="path2824"
       style="fill:none;stroke:#000000;stroke-width:0.940498px;stroke-linecap:round;stroke-linejoin:miter;stroke-opacity:1"
       transform="matrix(0.26458333,0,0,0.26458333,1.0583333,0)"
       d="m 406.53199,692.39631 c -2.04828,0.14203 -4.10935,0.22469 -6.1863,0.23845 -11.51655,0.0763 -23.52952,-1.96767 -33.71288,-4.75391 -10.18335,-2.78624 -18.54387,-6.316 -21.22851,-4.02148 -2.68465,2.29451 0.30754,10.41318 7.86718,15.85742 7.55965,5.44424 19.68897,8.21948 30.52735,9.70898 8.0187,1.102 15.33487,1.50051 22.74079,1.3009 m 0.006,13.52655 c -1.91264,0.13181 -3.83714,0.20853 -5.77638,0.22138 -10.83131,0.0718 -22.12957,-1.85025 -31.70702,-4.4707 -9.57745,-2.62046 -17.44188,-5.94119 -19.9668,-3.78321 -2.52492,2.15799 0.29054,9.79376 7.40039,14.91407 7.10986,5.1203 18.51744,7.73193 28.71094,9.13281 7.52659,1.03437 14.39489,1.4093 21.34587,1.22395 m 0.006,14.37279 c -1.54516,0.0927 -3.09873,0.1468 -4.66237,0.15716 -10.28974,0.0682 -21.02448,-1.75861 -30.12303,-4.24804 -9.09855,-2.48944 -16.56812,-5.64384 -18.9668,-3.59375 -2.39867,2.05008 0.27494,9.30367 7.0293,14.16797 6.75436,4.86429 17.59156,7.34494 27.27539,8.67578 6.85231,0.9417 13.13054,1.30806 19.45385,1.18198 m 0.008,13.49494 c -1.13452,0.0547 -2.27398,0.087 -3.4191,0.0946 -9.77525,0.0648 -19.97161,-1.67019 -28.61523,-4.03515 -8.64361,-2.36497 -15.73883,-5.36164 -18.01758,-3.41407 -2.27874,1.94758 0.2611,8.8379 6.67774,13.45899 6.41664,4.62108 16.71052,6.97789 25.91016,8.24219 6.14343,0.84428 11.80147,1.20259 17.46807,1.14002 m 0.007,13.97344 c -0.67927,0.0225 -1.36051,0.0363 -2.04387,0.0408 -9.28648,0.0615 -18.97411,-1.58727 -27.18554,-3.83398 -8.21144,-2.24671 -14.95239,-5.09434 -17.11719,-3.24414 -2.16479,1.8502 0.24794,8.39707 6.34375,12.78711 6.09581,4.39003 15.87557,6.629 24.61524,7.83007 5.40308,0.74254 10.41049,1.08939 15.39512,1.08963 m 0.006,14.38312 c -0.18369,0.003 -0.36754,0.005 -0.55156,0.006 -8.82217,0.0585 -18.0253,-1.5082 -25.82617,-3.64258 -7.80086,-2.13437 -14.20516,-4.83973 -16.26172,-3.08203 -2.05655,1.7577 0.23632,7.9779 6.02735,12.14844 5.79102,4.17053 15.08208,6.29648 23.38476,7.4375 4.63045,0.63635 8.95506,0.96683 13.23384,1.02562 m 0.007,14.36395 c -8.057,-0.0686 -16.37996,-1.51497 -23.48122,-3.45793 -7.41081,-2.02766 -13.49549,-4.59753 -15.44922,-2.92774 -1.95373,1.6698 0.22508,7.57706 5.72656,11.53907 5.50149,3.96201 14.32729,5.98243 22.21485,7.0664 3.83048,0.52641 7.44089,0.83211 10.99408,0.9389 m 0.004,11.62174 c -7.09333,-0.24178 -14.31042,-1.54445 -20.53717,-3.24814 -7.04028,-1.92628 -12.81974,-4.36756 -14.67578,-2.78125 -1.85603,1.58632 0.21305,7.19899 5.43946,10.96289 5.2264,3.76391 13.61229,5.68313 21.10545,6.71289 3.00495,0.41296 5.86717,0.68302 8.67392,0.82178 m 0.094,-217.32218 c 2.04828,0.14203 4.10935,0.22469 6.1863,0.23845 11.51655,0.0763 23.52952,-1.96767 33.71288,-4.75391 10.18335,-2.78624 18.54387,-6.316 21.22851,-4.02148 2.68465,2.29451 -0.30754,10.41318 -7.86718,15.85742 -7.55965,5.44424 -19.68897,8.21948 -30.52735,9.70898 -8.0187,1.102 -15.33487,1.50051 -22.74079,1.3009 m -0.006,13.52655 c 1.91264,0.13181 3.83714,0.20853 5.77638,0.22138 10.83131,0.0718 22.12957,-1.85025 31.70702,-4.4707 9.57745,-2.62046 17.44188,-5.94119 19.9668,-3.78321 2.52492,2.15799 -0.29054,9.79376 -7.40039,14.91407 -7.10986,5.1203 -18.51744,7.73193 -28.71094,9.13281 -7.52659,1.03437 -14.39489,1.4093 -21.34587,1.22395 m -0.006,14.37279 c 1.54516,0.0927 3.09873,0.1468 4.66237,0.15716 10.28974,0.0682 21.02448,-1.75861 30.12303,-4.24804 9.09855,-2.48944 16.56812,-5.64384 18.9668,-3.59375 2.39867,2.05008 -0.27494,9.30367 -7.0293,14.16797 -6.75436,4.86429 -17.59156,7.34494 -27.27539,8.67578 -6.85231,0.9417 -13.13054,1.30806 -19.45385,1.18198 m -0.008,13.49494 c 1.13452,0.0547 2.27398,0.087 3.4191,0.0946 9.77525,0.0648 19.97161,-1.67019 28.61523,-4.03515 8.64361,-2.36497 15.73883,-5.36164 18.01758,-3.41407 2.27874,1.94758 -0.2611,8.8379 -6.67774,13.45899 -6.41664,4.62108 -16.71052,6.97789 -25.91016,8.24219 -6.14343,0.84428 -11.80147,1.20259 -17.46807,1.14002 m -0.007,13.97344 c 0.67927,0.0225 1.36051,0.0363 2.04387,0.0408 9.28648,0.0615 18.97411,-1.58727 27.18554,-3.83398 8.21144,-2.24671 14.95239,-5.09434 17.11719,-3.24414 2.16479,1.8502 -0.24794,8.39707 -6.34375,12.78711 -6.09581,4.39003 -15.87557,6.629 -24.61524,7.83007 -5.40308,0.74254 -10.41049,1.08939 -15.39512,1.08963 m -0.006,14.38312 c 0.18369,0.003 0.36754,0.005 0.55156,0.006 8.82217,0.0585 18.0253,-1.5082 25.82617,-3.64258 7.80086,-2.13437 14.20516,-4.83973 16.26172,-3.08203 2.05655,1.7577 -0.23632,7.9779 -6.02735,12.14844 -5.79102,4.17053 -15.08208,6.29648 -23.38476,7.4375 -4.63045,0.63635 -8.95506,0.96683 -13.23384,1.02562 m -0.007,14.36395 c 8.057,-0.0686 16.37996,-1.51497 23.48122,-3.45793 7.41081,-2.02766 13.49549,-4.59753 15.44922,-2.92774 1.95373,1.6698 -0.22508,7.57706 -5.72656,11.53907 -5.50149,3.96201 -14.32729,5.98243 -22.21485,7.0664 -3.83048,0.52641 -7.44089,0.83211 -10.99408,0.9389 m -0.004,11.62174 c 7.09333,-0.24178 14.31042,-1.54445 20.53717,-3.24814 7.04028,-1.92628 12.81974,-4.36756 14.67578,-2.78125 1.85603,1.58632 -0.21305,7.19899 -5.43946,10.96289 -5.2264,3.76391 -13.61229,5.68313 -21.10545,6.71289 -3.00495,0.41296 -5.86717,0.68302 -8.67392,0.82178"
       inkscape:path-effect="#path-effect2954"
       inkscape:original-d="m 406.53199,692.39631 c -2.04828,0.14203 -4.10935,0.22469 -6.1863,0.23845 -11.51655,0.0763 -23.52952,-1.96767 -33.71288,-4.75391 -10.18335,-2.78624 -18.54387,-6.316 -21.22851,-4.02148 -2.68465,2.29451 0.30754,10.41318 7.86718,15.85742 7.55965,5.44424 19.68897,8.21948 30.52735,9.70898 8.0187,1.102 15.33487,1.50051 22.74079,1.3009 m 0.006,13.52655 c -1.91264,0.13181 -3.83714,0.20853 -5.77638,0.22138 -10.83131,0.0718 -22.12957,-1.85025 -31.70702,-4.4707 -9.57745,-2.62046 -17.44188,-5.94119 -19.9668,-3.78321 -2.52492,2.15799 0.29054,9.79376 7.40039,14.91407 7.10986,5.1203 18.51744,7.73193 28.71094,9.13281 7.52659,1.03437 14.39489,1.4093 21.34587,1.22395 m 0.006,14.37279 c -1.54516,0.0927 -3.09873,0.1468 -4.66237,0.15716 -10.28974,0.0682 -21.02448,-1.75861 -30.12303,-4.24804 -9.09855,-2.48944 -16.56812,-5.64384 -18.9668,-3.59375 -2.39867,2.05008 0.27494,9.30367 7.0293,14.16797 6.75436,4.86429 17.59156,7.34494 27.27539,8.67578 6.85231,0.9417 13.13054,1.30806 19.45385,1.18198 m 0.008,13.49494 c -1.13452,0.0547 -2.27398,0.087 -3.4191,0.0946 -9.77525,0.0648 -19.97161,-1.67019 -28.61523,-4.03515 -8.64361,-2.36497 -15.73883,-5.36164 -18.01758,-3.41407 -2.27874,1.94758 0.2611,8.8379 6.67774,13.45899 6.41664,4.62108 16.71052,6.97789 25.91016,8.24219 6.14343,0.84428 11.80147,1.20259 17.46807,1.14002 m 0.007,13.97344 c -0.67927,0.0225 -1.36051,0.0363 -2.04387,0.0408 -9.28648,0.0615 -18.97411,-1.58727 -27.18554,-3.83398 -8.21144,-2.24671 -14.95239,-5.09434 -17.11719,-3.24414 -2.16479,1.8502 0.24794,8.39707 6.34375,12.78711 6.09581,4.39003 15.87557,6.629 24.61524,7.83007 5.40308,0.74254 10.41049,1.08939 15.39512,1.08963 m 0.006,14.38312 c -0.18369,0.003 -0.36754,0.005 -0.55156,0.006 -8.82217,0.0585 -18.0253,-1.5082 -25.82617,-3.64258 -7.80086,-2.13437 -14.20516,-4.83973 -16.26172,-3.08203 -2.05655,1.7577 0.23632,7.9779 6.02735,12.14844 5.79102,4.17053 15.08208,6.29648 23.38476,7.4375 4.63045,0.63635 8.95506,0.96683 13.23384,1.02562 m 0.007,14.36395 c -8.057,-0.0686 -16.37996,-1.51497 -23.48122,-3.45793 -7.41081,-2.02766 -13.49549,-4.59753 -15.44922,-2.92774 -1.95373,1.6698 0.22508,7.57706 5.72656,11.53907 5.50149,3.96201 14.32729,5.98243 22.21485,7.0664 3.83048,0.52641 7.44089,0.83211 10.99408,0.9389 m 0.004,11.62174 c -7.09333,-0.24178 -14.31042,-1.54445 -20.53717,-3.24814 -7.04028,-1.92628 -12.81974,-4.36756 -14.67578,-2.78125 -1.85603,1.58632 0.21305,7.19899 5.43946,10.96289 5.2264,3.76391 13.61229,5.68313 21.10545,6.71289 3.00495,0.41296 5.86717,0.68302 8.67392,0.82178" />
    <path
       style="fill:#ffd42a;stroke:#000000;stroke-width:0.201839;stroke-linecap:round;stroke-linejoin:round;paint-order:markers stroke fill"
       d="m -83.549723,138.52405 a 6.0579608,2.0762146 46.58554 0 0 2.138505,5.53878 6.0579608,2.0762146 46.58554 0 0 5.885978,3.48183 6.0579608,2.0762146 46.58554 0 0 -2.138513,-5.53879 6.0579608,2.0762146 46.58554 0 0 -5.88597,-3.48182 z"
       transform="matrix(-0.90621524,-0.42281666,-0.01341445,0.99991002,0,0)"
       id="path11746" />
    <path
       style="fill:#ffd42a;stroke:#000000;stroke-width:0.201839;stroke-linecap:round;stroke-linejoin:round;paint-order:markers stroke fill"
       d="m -86.29717,128.77474 a 6.0579608,2.0762146 46.58554 0 0 2.138506,5.53878 6.0579608,2.0762146 46.58554 0 0 5.885977,3.48182 6.0579608,2.0762146 46.58554 0 0 -2.138504,-5.53879 6.0579608,2.0762146 46.58554 0 0 -5.885979,-3.48181 z"
       transform="matrix(-0.90621524,-0.42281666,-0.01341445,0.99991002,0,0)"
       id="path11744" />
    <path
       style="fill:#ffd42a;stroke:#000000;stroke-width:0.201839;stroke-linecap:round;stroke-linejoin:round;paint-order:markers stroke fill"
       d="m -88.894999,120.00208 a 6.0579608,2.0762146 46.58554 0 0 2.138513,5.53878 6.0579608,2.0762146 46.58554 0 0 5.88597,3.48183 6.0579608,2.0762146 46.58554 0 0 -2.138505,-5.5388 6.0579608,2.0762146 46.58554 0 0 -5.885978,-3.48181 z"
       transform="matrix(-0.90621524,-0.42281666,-0.01341445,0.99991002,0,0)"
       id="path11742" />
    <path
       style="fill:#ffd42a;stroke:#000000;stroke-width:0.201839;stroke-linecap:round;stroke-linejoin:round;paint-order:markers stroke fill"
       d="m -84.113802,146.86387 a 6.0579608,2.0762146 46.58554 0 0 2.138513,5.53879 6.0579608,2.0762146 46.58554 0 0 5.88597,3.48181 6.0579608,2.0762146 46.58554 0 0 -2.138505,-5.53878 6.0579608,2.0762146 46.58554 0 0 -5.885978,-3.48182 z"
       transform="matrix(-0.90621524,-0.42281666,-0.01341445,0.99991002,0,0)"
       id="path11740" />
    <path
       style="fill:#ffd42a;stroke:#000000;stroke-width:0.201839;stroke-linecap:round;stroke-linejoin:round;paint-order:markers stroke fill"
       d="m -86.438166,153.35321 a 6.0579608,2.0762146 46.58554 0 0 2.138507,5.53879 6.0579608,2.0762146 46.58554 0 0 5.885977,3.48182 6.0579608,2.0762146 46.58554 0 0 -2.138513,-5.53879 6.0579608,2.0762146 46.58554 0 0 -5.885971,-3.48182 z"
       transform="matrix(-0.90621524,-0.42281666,-0.01341445,0.99991002,0,0)"
       id="path11738" />
    <path
       style="fill:#ffd42a;stroke:#000000;stroke-width:0.201839;stroke-linecap:round;stroke-linejoin:round;paint-order:markers stroke fill"
       d="m -89.65428,159.86937 a 6.0579608,2.0762146 46.58554 0 0 2.138513,5.53879 6.0579608,2.0762146 46.58554 0 0 5.88597,3.48182 6.0579608,2.0762146 46.58554 0 0 -2.138504,-5.53879 6.0579608,2.0762146 46.58554 0 0 -5.885979,-3.48182 z"
       transform="matrix(-0.90621524,-0.42281666,-0.01341445,0.99991002,0,0)"
       id="path11736" />
    <path
       style="fill:#ffd42a;stroke:#000000;stroke-width:0.201839;stroke-linecap:round;stroke-linejoin:round;paint-order:markers stroke fill"
       d="m -95.631693,172.28621 a 6.0579608,2.0762146 46.58554 0 0 2.138504,5.53878 6.0579608,2.0762146 46.58554 0 0 5.885978,3.48182 6.0579608,2.0762146 46.58554 0 0 -2.138505,-5.53879 6.0579608,2.0762146 46.58554 0 0 -5.885977,-3.48181 z"
       transform="matrix(-0.90621524,-0.42281666,-0.01341445,0.99991002,0,0)"
       id="path11734" />
    <path
       style="fill:#ffd42a;stroke:#000000;stroke-width:0.201839;stroke-linecap:round;stroke-linejoin:round;paint-order:markers stroke fill"
       d="m -98.18048,178.88259 a 6.0579608,2.0762146 46.58554 0 0 2.138504,5.53879 6.0579608,2.0762146 46.58554 0 0 5.885978,3.48182 6.0579608,2.0762146 46.58554 0 0 -2.138513,-5.53879 6.0579608,2.0762146 46.58554 0 0 -5.885969,-3.48182 z"
       transform="matrix(-0.90621524,-0.42281666,-0.01341445,0.99991002,0,0)"
       id="path11732" />
    <path
       style="fill:#ffd42a;stroke:#000000;stroke-width:0.201839;stroke-linecap:round;stroke-linejoin:round;paint-order:markers stroke fill"
       d="m -101.15732,184.28823 a 6.0579608,2.0762146 46.58554 0 0 2.138506,5.5388 6.0579608,2.0762146 46.58554 0 0 5.885978,3.48181 6.0579608,2.0762146 46.58554 0 0 -2.138505,-5.53878 6.0579608,2.0762146 46.58554 0 0 -5.885979,-3.48183 z"
       transform="matrix(-0.90621524,-0.42281666,-0.01341445,0.99991002,0,0)"
       id="path11730" />
    <path
       style="fill:#ffd42a;stroke:#000000;stroke-width:0.201839;stroke-linecap:round;stroke-linejoin:round;paint-order:markers stroke fill"
       d="m -92.203066,166.46577 a 6.0579608,2.0762146 46.58554 0 0 2.138504,5.53878 6.0579608,2.0762146 46.58554 0 0 5.885978,3.48181 6.0579608,2.0762146 46.58554 0 0 -2.138505,-5.53878 6.0579608,2.0762146 46.58554 0 0 -5.885977,-3.48181 z"
       transform="matrix(-0.90621524,-0.42281666,-0.01341445,0.99991002,0,0)"
       id="path11728" />
    <path
       style="fill:#ffd42a;stroke:#000000;stroke-width:0.201839;stroke-linecap:round;stroke-linejoin:round;paint-order:markers stroke fill"
       d="m -157.87996,107.03723 a 4.4820551,2.8062186 1.3318813 0 1 -2.27486,3.67257 4.4820551,2.8062186 1.3318813 0 1 -5.91519,-1.50835 4.4820551,2.8062186 1.3318813 0 1 2.27487,-3.67257 4.4820551,2.8062186 1.3318813 0 1 5.91518,1.50835 z"
       transform="matrix(-0.90621524,-0.42281666,-0.01341445,0.99991002,0,0)"
       id="path11726" />
    <path
       style="fill:#ffd42a;stroke:#000000;stroke-width:0.201839;stroke-linecap:round;stroke-linejoin:round;paint-order:markers stroke fill"
       d="m -154.87986,99.718299 a 4.4820551,2.8062186 1.3318813 0 1 -2.27486,3.672571 4.4820551,2.8062186 1.3318813 0 1 -5.91519,-1.50836 4.4820551,2.8062186 1.3318813 0 1 2.27486,-3.672578 4.4820551,2.8062186 1.3318813 0 1 5.91519,1.508367 z"
       transform="matrix(-0.90621524,-0.42281666,-0.01341445,0.99991002,0,0)"
       id="path11724" />
    <path
       style="fill:#ffd42a;stroke:#000000;stroke-width:0.201839;stroke-linecap:round;stroke-linejoin:round;paint-order:markers stroke fill"
       d="m -152.63654,92.992746 a 4.4820551,2.8062186 1.3318813 0 1 -2.27486,3.672561 4.4820551,2.8062186 1.3318813 0 1 -5.91519,-1.508347 4.4820551,2.8062186 1.3318813 0 1 2.27486,-3.672571 4.4820551,2.8062186 1.3318813 0 1 5.91519,1.508357 z"
       transform="matrix(-0.90621524,-0.42281666,-0.01341445,0.99991002,0,0)"
       id="path11722" />
    <path
       style="fill:#ffd42a;stroke:#000000;stroke-width:0.201839;stroke-linecap:round;stroke-linejoin:round;paint-order:markers stroke fill"
       d="m -158.15636,116.02792 a 4.4820551,2.8062186 1.3318813 0 1 -2.27486,3.67257 4.4820551,2.8062186 1.3318813 0 1 -5.91518,-1.50835 4.4820551,2.8062186 1.3318813 0 1 2.27485,-3.67258 4.4820551,2.8062186 1.3318813 0 1 5.91519,1.50836 z"
       transform="matrix(-0.90621524,-0.42281666,-0.01341445,0.99991002,0,0)"
       id="path11720" />
    <path
       style="fill:#ffd42a;stroke:#000000;stroke-width:0.201839;stroke-linecap:round;stroke-linejoin:round;paint-order:markers stroke fill"
       d="m -155.46374,124.1095 a 4.4820551,2.8062186 1.3318813 0 1 -2.27486,3.67257 4.4820551,2.8062186 1.3318813 0 1 -5.91519,-1.50836 4.4820551,2.8062186 1.3318813 0 1 2.27486,-3.67257 4.4820551,2.8062186 1.3318813 0 1 5.91519,1.50836 z"
       transform="matrix(-0.90621524,-0.42281666,-0.01341445,0.99991002,0,0)"
       id="path11718" />
    <path
       style="fill:#ffd42a;stroke:#000000;stroke-width:0.201839;stroke-linecap:round;stroke-linejoin:round;paint-order:markers stroke fill"
       d="m -152.47935,133.24757 a 4.4820551,2.8062186 1.3318813 0 1 -2.27488,3.67256 4.4820551,2.8062186 1.3318813 0 1 -5.91518,-1.50835 4.4820551,2.8062186 1.3318813 0 1 2.27487,-3.67257 4.4820551,2.8062186 1.3318813 0 1 5.91519,1.50836 z"
       transform="matrix(-0.90621524,-0.42281666,-0.01341445,0.99991002,0,0)"
       id="path11716" />
    <path
       style="fill:#ffd42a;stroke:#000000;stroke-width:0.201839;stroke-linecap:round;stroke-linejoin:round;paint-order:markers stroke fill"
       d="m -146.94162,150.53364 a 4.4820551,2.8062186 1.3318813 0 1 -2.27486,3.67257 4.4820551,2.8062186 1.3318813 0 1 -5.91519,-1.50837 4.4820551,2.8062186 1.3318813 0 1 2.27486,-3.67257 4.4820551,2.8062186 1.3318813 0 1 5.91519,1.50837 z"
       transform="matrix(-0.90621524,-0.42281666,-0.01341445,0.99991002,0,0)"
       id="path11714" />
    <path
       style="fill:#ffd42a;stroke:#000000;stroke-width:0.201839;stroke-linecap:round;stroke-linejoin:round;paint-order:markers stroke fill"
       d="m -144.61862,159.19008 a 4.4820551,2.8062186 1.3318813 0 1 -2.27486,3.67257 4.4820551,2.8062186 1.3318813 0 1 -5.91519,-1.50835 4.4820551,2.8062186 1.3318813 0 1 2.27487,-3.67257 4.4820551,2.8062186 1.3318813 0 1 5.91518,1.50835 z"
       transform="matrix(-0.90621524,-0.42281666,-0.01341445,0.99991002,0,0)"
       id="path11712" />
    <path
       style="fill:#ffd42a;stroke:#000000;stroke-width:0.201839;stroke-linecap:round;stroke-linejoin:round;paint-order:markers stroke fill"
       d="m -141.83786,167.03035 a 4.4820551,2.8062186 1.3318813 0 1 -2.27485,3.67258 4.4820551,2.8062186 1.3318813 0 1 -5.91519,-1.50836 4.4820551,2.8062186 1.3318813 0 1 2.27485,-3.67258 4.4820551,2.8062186 1.3318813 0 1 5.91519,1.50836 z"
       transform="matrix(-0.90621524,-0.42281666,-0.01341445,0.99991002,0,0)"
       id="path11710" />
    <path
       style="fill:#ffd42a;stroke:#000000;stroke-width:0.201839;stroke-linecap:round;stroke-linejoin:round;paint-order:markers stroke fill"
       d="m -150.15635,141.90402 a 4.4820551,2.8062186 1.3318813 0 1 -2.27486,3.67257 4.4820551,2.8062186 1.3318813 0 1 -5.9152,-1.50837 4.4820551,2.8062186 1.3318813 0 1 2.27487,-3.67257 4.4820551,2.8062186 1.3318813 0 1 5.91519,1.50837 z"
       transform="matrix(-0.90621524,-0.42281666,-0.01341445,0.99991002,0,0)"
       id="path11708" />
    <path
       style="fill:#ffd42a;stroke:#000000;stroke-width:0.201839;stroke-linecap:round;stroke-linejoin:round;paint-order:markers stroke fill"
       d="m -95.103747,127.82223 a 6.0579608,2.0762146 46.58554 0 0 2.138505,5.53879 6.0579608,2.0762146 46.58554 0 0 5.885977,3.48182 6.0579608,2.0762146 46.58554 0 0 -2.138504,-5.53879 6.0579608,2.0762146 46.58554 0 0 -5.885978,-3.48182 z"
       transform="matrix(-0.90621524,-0.42281666,-0.01341445,0.99991002,0,0)"
       id="path11706" />
    <path
       style="fill:#ffd42a;stroke:#000000;stroke-width:0.201839;stroke-linecap:round;stroke-linejoin:round;paint-order:markers stroke fill"
       d="m -93.00518,136.58575 a 6.0579608,2.0762146 46.58554 0 0 2.138513,5.53878 6.0579608,2.0762146 46.58554 0 0 5.88597,3.48182 6.0579608,2.0762146 46.58554 0 0 -2.138505,-5.53878 6.0579608,2.0762146 46.58554 0 0 -5.885978,-3.48182 z"
       transform="matrix(-0.90621524,-0.42281666,-0.01341445,0.99991002,0,0)"
       id="path11704" />
    <path
       style="fill:#ffd42a;stroke:#000000;stroke-width:0.201839;stroke-linecap:round;stroke-linejoin:round;paint-order:markers stroke fill"
       d="m -96.298513,148.31999 a 6.0579608,2.0762146 46.58554 0 0 2.138505,5.53878 6.0579608,2.0762146 46.58554 0 0 5.885977,3.48182 6.0579608,2.0762146 46.58554 0 0 -2.138512,-5.53878 6.0579608,2.0762146 46.58554 0 0 -5.88597,-3.48182 z"
       transform="matrix(-0.90621524,-0.42281666,-0.01341445,0.99991002,0,0)"
       id="path11702" />
    <path
       style="fill:#ffd42a;stroke:#000000;stroke-width:0.201839;stroke-linecap:round;stroke-linejoin:round;paint-order:markers stroke fill"
       d="m -98.391161,139.15509 a 6.0579608,2.0762146 46.58554 0 0 2.138512,5.53878 6.0579608,2.0762146 46.58554 0 0 5.88597,3.48182 6.0579608,2.0762146 46.58554 0 0 -2.138505,-5.53878 6.0579608,2.0762146 46.58554 0 0 -5.885977,-3.48182 z"
       transform="matrix(-0.90621524,-0.42281666,-0.01341445,0.99991002,0,0)"
       id="path11700" />
    <path
       style="fill:#ffd42a;stroke:#000000;stroke-width:0.201839;stroke-linecap:round;stroke-linejoin:round;paint-order:markers stroke fill"
       d="m -99.73605,154.74253 a 6.0579608,2.0762146 46.58554 0 0 2.138506,5.53878 6.0579608,2.0762146 46.58554 0 0 5.885977,3.48182 6.0579608,2.0762146 46.58554 0 0 -2.138504,-5.53878 6.0579608,2.0762146 46.58554 0 0 -5.885979,-3.48182 z"
       transform="matrix(-0.90621524,-0.42281666,-0.01341445,0.99991002,0,0)"
       id="path11698" />
    <path
       style="fill:#ffd42a;stroke:#000000;stroke-width:0.201839;stroke-linecap:round;stroke-linejoin:round;paint-order:markers stroke fill"
       d="m -103.82604,160.08135 a 6.0579608,2.0762146 46.58554 0 0 2.1385,5.53879 6.0579608,2.0762146 46.58554 0 0 5.885978,3.48182 6.0579608,2.0762146 46.58554 0 0 -2.138505,-5.53879 6.0579608,2.0762146 46.58554 0 0 -5.885973,-3.48182 z"
       transform="matrix(-0.90621524,-0.42281666,-0.01341445,0.99991002,0,0)"
       id="path11696" />
    <path
       style="fill:#ffd42a;stroke:#000000;stroke-width:0.201839;stroke-linecap:round;stroke-linejoin:round;paint-order:markers stroke fill"
       d="m -105.28545,168.35011 a 6.0579608,2.0762146 46.58554 0 0 2.13851,5.53878 6.0579608,2.0762146 46.58554 0 0 5.885975,3.48182 6.0579608,2.0762146 46.58554 0 0 -2.138505,-5.53878 6.0579608,2.0762146 46.58554 0 0 -5.88598,-3.48182 z"
       transform="matrix(-0.90621524,-0.42281666,-0.01341445,0.99991002,0,0)"
       id="path11694" />
    <path
       style="fill:#ffd42a;stroke:#000000;stroke-width:0.201839;stroke-linecap:round;stroke-linejoin:round;paint-order:markers stroke fill"
       d="m -107.6009,174.23735 a 6.0579608,2.0762146 46.58554 0 0 2.1385,5.53878 6.0579608,2.0762146 46.58554 0 0 5.88598,3.48182 6.0579608,2.0762146 46.58554 0 0 -2.1385,-5.53878 6.0579608,2.0762146 46.58554 0 0 -5.88598,-3.48182 z"
       transform="matrix(-0.90621524,-0.42281666,-0.01341445,0.99991002,0,0)"
       id="path11692" />
    <path
       style="fill:#ffd42a;stroke:#000000;stroke-width:0.201839;stroke-linecap:round;stroke-linejoin:round;paint-order:markers stroke fill"
       d="m -109.21553,183.65219 a 6.0579608,2.0762146 46.58554 0 0 2.13851,5.53878 6.0579608,2.0762146 46.58554 0 0 5.88598,3.48182 6.0579608,2.0762146 46.58554 0 0 -2.13851,-5.53879 6.0579608,2.0762146 46.58554 0 0 -5.88598,-3.48181 z"
       transform="matrix(-0.90621524,-0.42281666,-0.01341445,0.99991002,0,0)"
       id="path11690" />
    <path
       style="fill:#ffd42a;stroke:#000000;stroke-width:0.201839;stroke-linecap:round;stroke-linejoin:round;paint-order:markers stroke fill"
       d="m -145.66173,105.23186 a 4.4820551,2.8062186 1.3318813 0 1 -2.27486,3.67257 4.4820551,2.8062186 1.3318813 0 1 -5.91518,-1.50836 4.4820551,2.8062186 1.3318813 0 1 2.27486,-3.67257 4.4820551,2.8062186 1.3318813 0 1 5.91518,1.50836 z"
       transform="matrix(-0.90621524,-0.42281666,-0.01341445,0.99991002,0,0)"
       id="path11688" />
    <path
       style="fill:#ffd42a;stroke:#000000;stroke-width:0.201839;stroke-linecap:round;stroke-linejoin:round;paint-order:markers stroke fill"
       d="m -148.90158,113.35358 a 4.4820551,2.8062186 1.3318813 0 1 -2.27486,3.67258 4.4820551,2.8062186 1.3318813 0 1 -5.91519,-1.50836 4.4820551,2.8062186 1.3318813 0 1 2.27487,-3.67257 4.4820551,2.8062186 1.3318813 0 1 5.91518,1.50835 z"
       transform="matrix(-0.90621524,-0.42281666,-0.01341445,0.99991002,0,0)"
       id="path11686" />
    <path
       style="fill:#ffd42a;stroke:#000000;stroke-width:0.201839;stroke-linecap:round;stroke-linejoin:round;paint-order:markers stroke fill"
       d="m -146.56966,121.40796 a 4.4820551,2.8062186 1.3318813 0 1 -2.27486,3.67256 4.4820551,2.8062186 1.3318813 0 1 -5.91519,-1.50835 4.4820551,2.8062186 1.3318813 0 1 2.27486,-3.67258 4.4820551,2.8062186 1.3318813 0 1 5.91519,1.50837 z"
       transform="matrix(-0.90621524,-0.42281666,-0.01341445,0.99991002,0,0)"
       id="path11684" />
    <path
       style="fill:#ffd42a;stroke:#000000;stroke-width:0.201839;stroke-linecap:round;stroke-linejoin:round;paint-order:markers stroke fill"
       d="m -144.67766,129.07435 a 4.4820551,2.8062186 1.3318813 0 1 -2.27487,3.67257 4.4820551,2.8062186 1.3318813 0 1 -5.91518,-1.50836 4.4820551,2.8062186 1.3318813 0 1 2.27486,-3.67257 4.4820551,2.8062186 1.3318813 0 1 5.91519,1.50836 z"
       transform="matrix(-0.90621524,-0.42281666,-0.01341445,0.99991002,0,0)"
       id="path11682" />
    <path
       style="fill:#ffd42a;stroke:#000000;stroke-width:0.201839;stroke-linecap:round;stroke-linejoin:round;paint-order:markers stroke fill"
       d="m -142.79754,137.54353 a 4.4820551,2.8062186 1.3318813 0 1 -2.27485,3.67257 4.4820551,2.8062186 1.3318813 0 1 -5.9152,-1.50836 4.4820551,2.8062186 1.3318813 0 1 2.27487,-3.67257 4.4820551,2.8062186 1.3318813 0 1 5.91518,1.50836 z"
       transform="matrix(-0.90621524,-0.42281666,-0.01341445,0.99991002,0,0)"
       id="path11680" />
    <path
       style="fill:#ffd42a;stroke:#000000;stroke-width:0.201839;stroke-linecap:round;stroke-linejoin:round;paint-order:markers stroke fill"
       d="m -140.55079,145.63852 a 4.4820551,2.8062186 1.3318813 0 1 -2.27486,3.67257 4.4820551,2.8062186 1.3318813 0 1 -5.91519,-1.50836 4.4820551,2.8062186 1.3318813 0 1 2.27487,-3.67257 4.4820551,2.8062186 1.3318813 0 1 5.91518,1.50836 z"
       transform="matrix(-0.90621524,-0.42281666,-0.01341445,0.99991002,0,0)"
       id="path11678" />
    <path
       style="fill:#ffd42a;stroke:#000000;stroke-width:0.201839;stroke-linecap:round;stroke-linejoin:round;paint-order:markers stroke fill"
       d="m -139.16481,153.79424 a 2.7211822,3.7351744 82.939737 0 1 -1.89723,3.71182 2.7211822,3.7351744 82.939737 0 1 -4.90976,-1.10902 2.7211822,3.7351744 82.939737 0 1 1.89722,-3.71181 2.7211822,3.7351744 82.939737 0 1 4.90977,1.10901 z"
       transform="matrix(-0.90621524,-0.42281666,-0.01341445,0.99991002,0,0)"
       id="path11676" />
    <path
       style="fill:#ffd42a;stroke:#000000;stroke-width:0.201839;stroke-linecap:round;stroke-linejoin:round;paint-order:markers stroke fill"
       d="m -138.39174,173.6297 a 3.3023079,1.9056674 3.9228396 0 1 -1.67066,2.44375 3.3023079,1.9056674 3.9228396 0 1 -4.35331,-1.16592 3.3023079,1.9056674 3.9228396 0 1 1.67066,-2.44374 3.3023079,1.9056674 3.9228396 0 1 4.35331,1.16591 z"
       transform="matrix(-0.90621524,-0.42281666,-0.01341445,0.99991002,0,0)"
       id="path11674" />
    <path
       style="fill:#ffd42a;stroke:#000000;stroke-width:0.201839;stroke-linecap:round;stroke-linejoin:round;paint-order:markers stroke fill"
       d="m -139.24924,161.24453 a 2.2172429,2.7505882 48.519915 0 1 -1.30081,3.44236 2.2172429,2.7505882 48.519915 0 1 -3.33384,-0.55439 2.2172429,2.7505882 48.519915 0 1 1.3008,-3.44236 2.2172429,2.7505882 48.519915 0 1 3.33385,0.55439 z"
       transform="matrix(-0.90621524,-0.42281666,-0.01341445,0.99991002,0,0)"
       id="path11672" />
    <path
       style="fill:#ffd42a;stroke:#000000;stroke-width:0.201839;stroke-linecap:round;stroke-linejoin:round;paint-order:markers stroke fill"
       d="m -110.28751,189.32815 a 3.7494526,1.2925315 45.466522 0 0 2.76489,3.95813 3.7494526,1.2925315 45.466522 0 0 2.80761,0.51371 3.7494526,1.2925315 45.466522 0 0 -2.76489,-3.95814 3.7494526,1.2925315 45.466522 0 0 -2.80761,-0.5137 z"
       transform="matrix(-0.90621524,-0.42281666,-0.01341445,0.99991002,0,0)"
       id="path11670" />
    <path
       style="fill:#ffd42a;stroke:#000000;stroke-width:0.201839;stroke-linecap:round;stroke-linejoin:round;paint-order:markers stroke fill"
       d="m -108.23357,180.33556 a 3.7494526,1.2925315 45.466522 0 0 2.76489,3.95814 3.7494526,1.2925315 45.466522 0 0 2.80761,0.5137 3.7494526,1.2925315 45.466522 0 0 -2.76489,-3.95813 3.7494526,1.2925315 45.466522 0 0 -2.80761,-0.51371 z"
       transform="matrix(-0.90621524,-0.42281666,-0.01341445,0.99991002,0,0)"
       id="path11668" />
    <path
       style="fill:#ffd42a;stroke:#000000;stroke-width:0.201839;stroke-linecap:round;stroke-linejoin:round;paint-order:markers stroke fill"
       d="m -101.98031,130.93995 a 5.1206728,1.9020388 47.71075 0 0 3.642639,5.63022 5.1206728,1.9020388 47.71075 0 0 3.799286,0.52471 5.1206728,1.9020388 47.71075 0 0 -3.642642,-5.63022 5.1206728,1.9020388 47.71075 0 0 -3.799283,-0.52471 z"
       transform="matrix(-0.90621524,-0.42281666,-0.01341445,0.99991002,0,0)"
       id="path11666" />
    <path
       style="fill:#ffd42a;stroke:#000000;stroke-width:0.201839;stroke-linecap:round;stroke-linejoin:round;paint-order:markers stroke fill"
       d="m -94.774881,122.47639 a 5.1206728,1.9020388 47.71075 0 0 3.642642,5.63021 5.1206728,1.9020388 47.71075 0 0 3.799286,0.52472 5.1206728,1.9020388 47.71075 0 0 -3.642642,-5.63022 5.1206728,1.9020388 47.71075 0 0 -3.799286,-0.52471 z"
       transform="matrix(-0.90621524,-0.42281666,-0.01341445,0.99991002,0,0)"
       id="path11664" />
    <path
       style="fill:#ffd42a;stroke:#000000;stroke-width:0.201839;stroke-linecap:round;stroke-linejoin:round;paint-order:markers stroke fill"
       d="m -146.73961,98.977821 a 3.4088094,2.478224 0 0 1 -3.40881,2.478229 3.4088094,2.478224 0 0 1 -3.40881,-2.478229 3.4088094,2.478224 0 0 1 3.40881,-2.478224 3.4088094,2.478224 0 0 1 3.40881,2.478224 z"
       transform="matrix(-0.90621524,-0.42281666,-0.01341445,0.99991002,0,0)"
       id="path1387-8-5-0-4-3-8-8-1-7-7-2-1" />
    <path
       style="fill:#00ff00;stroke:#00ff00;stroke-width:0.23622;stroke-linecap:round;stroke-linejoin:round;paint-order:markers stroke fill"
       d="M 175.625,57.577751 V 38.073827 l 0.40625,-0.07533 c 1.31192,-0.243276 8.5587,-0.251818 9.30797,-0.01097 0.61437,0.197484 5.08698,7.941115 8.21597,14.224697 1.60484,3.222815 2.24022,4.777335 2.1308,5.213286 -0.39893,1.589445 -4.2757,9.181405 -7.63331,14.948469 -1.54187,2.648316 -2.18604,3.593015 -2.58023,3.783965 -0.67103,0.325052 -3.43029,0.607616 -8.2537,0.845223 l -1.59375,0.07851 z"
       id="path1811"
       transform="matrix(0.26458333,0,0,0.26458333,61.437515,134.79388)" />
    <path
       style="fill:#00ff00;stroke:#00ff00;stroke-width:0.23622;stroke-linecap:round;stroke-linejoin:round;paint-order:markers stroke fill"
       d="m 171.0625,76.978874 c -3.26256,-0.12923 -6.33034,-0.433322 -7.375,-0.731045 -0.59152,-0.168578 -0.66265,-0.236903 -1.32769,-1.275476 -2.88615,-4.507181 -8.28581,-14.75444 -9.04685,-17.168734 l -0.21905,-0.694915 0.46908,-1.179353 c 1.59456,-4.008979 8.95975,-17.387345 9.85426,-17.899596 0.30537,-0.174869 8.52534,-0.218968 9.364,-0.05024 l 0.46875,0.09431 V 57.56816 77.062496 l -0.65625,-0.02448 c -0.36094,-0.01346 -1.05,-0.04008 -1.53125,-0.05914 z"
       id="path1850"
       transform="matrix(0.26458333,0,0,0.26458333,61.437515,134.79388)" />
    <path
       style="fill:#008000;stroke:#008000;stroke-width:0.167033;stroke-linecap:round;stroke-linejoin:round;paint-order:markers stroke fill"
       d="m 225.51854,40.26663 c -2.35528,-1.477794 -9.47309,-5.121204 -10.4255,-5.336519 -1.08792,-0.245952 -5.8245,-0.787751 -10.69499,-1.22336 -0.68059,-0.06087 -1.9335,-0.111708 -2.78423,-0.112974 -1.76609,-0.0026 -1.85906,0.0082 -13.92117,1.623979 -3.84204,0.514654 -3.92223,0.521575 -6.62912,0.572126 -1.50703,0.02814 -3.33223,0.09216 -4.05601,0.142263 -0.72378,0.0501 -1.33546,0.0716 -1.35929,0.04777 -0.0625,-0.06255 -0.22937,-24.442692 -0.16768,-24.504387 0.18035,-0.180348 12.10105,-3.1259508 16.75633,-4.1404867 1.87912,-0.4095185 2.18158,-0.4548956 2.3423,-0.3513971 0.10149,0.065365 2.53534,1.1733202 5.40854,2.4621228 11.86996,5.324393 13.89564,6.286004 14.82969,7.039832 2.34694,1.894086 7.02519,6.459413 7.87332,7.683263 0.28818,0.415846 0.64004,1.791708 1.36891,5.352843 0.63412,3.098156 2.12614,10.798435 2.12614,10.972926 0,0.17105 -0.0686,0.147613 -0.66724,-0.228003 z"
       id="path2622"
       transform="matrix(0.26458333,0,0,0.26458333,61.437515,134.79388)" />
    <path
       style="fill:#008000;stroke:#008000;stroke-width:0.167033;stroke-linecap:round;stroke-linejoin:round;paint-order:markers stroke fill"
       d="m 122.63876,40.499397 c 0.0249,-0.106872 0.34187,-1.745527 0.70448,-3.641457 0.94355,-4.933487 1.94813,-9.844033 2.2981,-11.233461 0.28923,-1.14829 0.32188,-1.222165 0.80943,-1.831641 1.08864,-1.360892 5.68826,-5.787465 7.59279,-7.307136 0.96419,-0.769356 2.89593,-1.688996 14.1395,-6.7313836 2.91682,-1.3080997 5.53045,-2.4929992 5.80809,-2.63311 l 0.50478,-0.254747 2.72139,0.6036212 c 4.89621,1.0860096 16.00255,3.8370704 16.17109,4.0056094 0.0459,0.04591 -0.13939,24.475774 -0.18601,24.522387 -0.0164,0.01641 -0.66074,-0.01334 -1.43185,-0.06611 -0.77111,-0.05277 -2.59526,-0.117752 -4.05366,-0.144394 l -2.65165,-0.04844 -4.552,-0.608775 c -5.69675,-0.761871 -9.65605,-1.273672 -11.31371,-1.46247 -1.56579,-0.178335 -2.70101,-0.139393 -6.71807,0.230456 -5.24211,0.482637 -8.2513,0.864474 -9.14764,1.160746 -1.05768,0.3496 -7.20692,3.53659 -9.83673,5.098123 -0.7823,0.464517 -0.89747,0.510429 -0.85833,0.34219 z"
       id="path2700"
       transform="matrix(0.26458333,0,0,0.26458333,61.437515,134.79388)" />
    <path
       style="fill:#808000;stroke:#808000;stroke-width:0.472441;stroke-linecap:round;stroke-linejoin:round;paint-order:markers stroke fill"
       d="m 124.52976,84.172845 c -1.70907,-5.15587 -4.87303,-11.272742 -8.06262,-15.587462 l -1.23054,-1.664612 1.61245,-5.335388 c 0.88684,-2.934461 2.02492,-6.854134 2.52906,-8.710384 0.50414,-1.85625 1.3599,-4.745157 1.9017,-6.419794 l 0.98508,-3.044793 1.68005,-1.063413 c 0.92403,-0.584878 3.60723,-2.057159 5.96267,-3.271737 l 4.28262,-2.208324 4.46738,-0.522657 c 6.55898,-0.767362 10.1452,-0.739002 16.59239,0.131213 2.95625,0.399023 5.46716,0.806188 5.57981,0.904812 0.11264,0.09863 -0.26245,0.942725 -0.83354,1.875778 -3.41145,5.573658 -8.5886,15.695789 -8.86517,17.332796 -0.11887,0.703598 0.008,1.393635 0.49099,2.679385 0.65534,1.743046 4.28973,8.907603 5.97253,11.773798 0.49796,0.848138 0.90538,1.595318 0.90538,1.6604 0,0.06508 -0.30669,0.195303 -0.68152,0.28938 -0.37483,0.09408 -3.7033,1.235125 -7.3966,2.535663 -7.06451,2.487657 -8.30861,3.052647 -17.54688,7.968642 -3.1625,1.682872 -6.09729,3.237467 -6.52175,3.454657 l -0.77175,0.394888 z"
       id="path3164"
       transform="matrix(0.26458333,0,0,0.26458333,61.437515,134.79388)" />
    <path
       style="fill:#808000;stroke:#808000;stroke-width:0.472441;stroke-linecap:round;stroke-linejoin:round;paint-order:markers stroke fill"
       d="m 214.74999,82.851935 c -8.62363,-4.598037 -9.30733,-4.89438 -19.3125,-8.370667 -2.71562,-0.943542 -4.93749,-1.789942 -4.93749,-1.88089 0,-0.09095 1.12447,-2.231985 2.49883,-4.757867 3.57768,-6.575293 4.62022,-9.000846 4.62351,-10.756922 0.002,-1.298133 -0.20767,-1.832488 -2.55575,-6.5 -1.40712,-2.797074 -3.61551,-6.88559 -4.90753,-9.08559 -1.96228,-3.341261 -2.28203,-4.029288 -1.9416,-4.177842 0.22414,-0.09781 3.10754,-0.530946 6.40753,-0.962516 6.69532,-0.875608 7.79881,-0.87481 15.6377,0.0113 l 4.3623,0.493116 3.5,1.782967 c 3.99892,2.037125 7.89903,4.279458 8.31494,4.780604 0.37378,0.450377 1.54902,4.103426 2.95894,9.197372 0.62795,2.26875 1.80759,6.338522 2.62142,9.043937 0.81384,2.705417 1.4797,5.038535 1.4797,5.18471 0,0.146172 -0.49382,0.915107 -1.09739,1.70874 -2.89162,3.802235 -6.47333,10.701309 -8.12201,15.644582 -0.54241,1.626335 -1.02432,2.991502 -1.0709,3.033705 -0.0466,0.0422 -3.85345,-1.932728 -8.4597,-4.388739 z"
       id="path3203"
       transform="matrix(0.26458333,0,0,0.26458333,61.437515,134.79388)" />
    <path
       style="fill:#808000;stroke:#808000;stroke-width:0.472441;stroke-linecap:round;stroke-linejoin:round;paint-order:markers stroke fill"
       d="m 209.39262,151.16526 c -1.19358,-3.71352 -2.65876,-7.27107 -3.31656,-8.05282 -1.01178,-1.20243 -5.58065,-3.23867 -21.57606,-9.61594 l -8.875,-3.53841 -0.004,-6.22904 c -0.002,-3.42598 0.0317,-8.00093 0.0747,-10.16655 l 0.0782,-3.9375 7.80027,0.0146 c 4.29015,0.008 11.45652,0.10726 15.92527,0.22053 l 8.125,0.20594 2.375,0.87633 c 3.91842,1.44582 9.79276,4.14502 10.09888,4.64034 0.0744,0.12041 -0.94111,1.61355 -2.25673,3.3181 -1.31562,1.70454 -3.18367,4.28042 -4.15123,5.72417 l -1.75919,2.625 0.14558,2.875 c 0.0801,1.58125 0.54969,6.34629 1.0436,10.58899 l 0.89802,7.714 -0.59984,0.786 c -0.32992,0.4323 -1.21425,1.53537 -1.96518,2.45127 l -1.36533,1.66526 z"
       id="path3242"
       transform="matrix(0.26458333,0,0,0.26458333,61.437515,134.79388)" />
    <path
       style="fill:#808000;stroke:#808000;stroke-width:0.472441;stroke-linecap:round;stroke-linejoin:round;paint-order:markers stroke fill"
       d="m 136.69856,150.80053 -1.89685,-2.32905 0.57811,-4.73574 c 0.87501,-7.16783 1.37343,-12.26203 1.42034,-14.51684 0.051,-2.45098 0.018,-2.51196 -4.95493,-9.14492 l -3.3183,-4.42602 1.42403,-0.77725 c 2.0136,-1.09904 7.06072,-3.30713 9.42404,-4.12298 1.95738,-0.6757 2.17048,-0.69472 10,-0.89259 4.4,-0.11119 11.57187,-0.20846 15.9375,-0.21616 l 7.9375,-0.014 -0.007,10.1875 -0.007,10.1875 -8.18024,3.22674 c -9.39584,3.70625 -18.50001,7.54349 -20.68023,8.71633 -1.37322,0.73872 -1.57653,0.96135 -2.40539,2.63399 -0.49796,1.00488 -1.38586,3.25488 -1.97311,5 -0.58724,1.74511 -1.14273,3.25835 -1.23441,3.36273 -0.0917,0.10439 -1.02027,-0.85827 -2.06353,-2.13926 z"
       id="path3281"
       transform="matrix(0.26458333,0,0,0.26458333,61.437515,134.79388)" />
    <path
       style="fill:#aad400;stroke:#aad400;stroke-width:0.334066;stroke-linecap:round;stroke-linejoin:round;paint-order:markers stroke fill"
       d="m 168.3798,172.60944 c -15.44746,-3.41222 -24.55189,-6.06413 -29.46249,-8.58174 l -0.99332,-0.50926 0.87003,-3.0052 c 2.04411,-7.06065 3.94245,-12.67871 5.01382,-14.8382 l 0.7071,-1.42526 1.50261,-0.75382 c 2.88654,-1.44812 13.80179,-5.97905 23.89029,-9.91689 l 4.53325,-1.76946 5.54302,2.1829 c 14.31932,5.6391 23.26231,9.44436 24.25627,10.32109 0.72969,0.64364 2.17962,4.3315 3.97127,10.10084 1.02565,3.30271 2.68294,8.93596 2.68294,9.11948 0,0.13175 -2.09226,1.05484 -4.7833,2.11035 -4.1667,1.63432 -10.15371,3.38141 -17.75776,5.18196 -4.89777,1.15973 -13.67108,3.0352 -14.0978,3.01368 -0.21772,-0.011 -2.86189,-0.56469 -5.87593,-1.23047 z"
       id="path3546"
       transform="matrix(0.26458333,0,0,0.26458333,61.437515,134.79388)" />
    <path
       style="fill:#445500;stroke:#445500;stroke-width:0.23622;stroke-linecap:round;stroke-linejoin:round;paint-order:markers stroke fill"
       d="m 134.26603,161.61939 c -6.25074,-3.78374 -11.3477,-8.88533 -16.92445,-16.93979 l -0.82767,-1.1954 1.75489,-4.5546 c 0.96519,-2.50503 1.79622,-4.66178 1.84674,-4.79277 0.0742,-0.19245 1.79335,1.85371 8.9569,10.6607 6.11597,7.51909 8.86107,10.9847 8.85221,11.17567 -0.0238,0.51267 -1.85431,6.58933 -1.98389,6.5858 -0.0705,-0.002 -0.82417,-0.42475 -1.67473,-0.93961 z"
       id="path4113"
       transform="matrix(0.26458333,0,0,0.26458333,61.437515,134.79388)" />
    <path
       style="fill:#445500;stroke:#445500;stroke-width:0.23622;stroke-linecap:round;stroke-linejoin:round;paint-order:markers stroke fill"
       d="m 212.5061,161.64114 c -0.15116,-0.55888 -0.58516,-2.07305 -0.96445,-3.36483 -0.37929,-1.29178 -0.66181,-2.42114 -0.62783,-2.5097 0.034,-0.0885 4.03069,-5.03677 8.88156,-10.99603 7.23434,-8.88734 8.8403,-10.79553 8.93396,-10.61531 0.22095,0.42519 3.52065,9.11921 3.52065,9.27619 0,0.20633 -1.29585,2.08451 -3.06583,4.44354 -4.89849,6.5287 -9.89472,11.12871 -15.51245,14.28224 l -0.89078,0.50004 z"
       id="path4152"
       transform="matrix(0.26458333,0,0,0.26458333,61.437515,134.79388)" />
    <path
       style="fill:#ffcc00;stroke:#ffcc00;stroke-width:0.668132;stroke-linecap:round;stroke-linejoin:round;paint-order:markers stroke fill"
       d="m 215.86543,145.06 c -0.33088,-1.5184 -1.61208,-13.93125 -1.61208,-15.61849 0,-1.87095 0.31679,-2.42088 4.8875,-8.4845 2.01448,-2.67245 2.70365,-3.3686 2.9316,-2.96128 0.27842,0.49752 3.24751,7.71186 4.86246,11.8149 l 0.71805,1.82432 -4.97784,6.13064 c -2.73781,3.37185 -5.35028,6.57479 -5.80548,7.11764 l -0.82766,0.987 z"
       id="path4339"
       transform="matrix(0.26458333,0,0,0.26458333,61.437515,134.79388)" />
    <path
       style="fill:#ffcc00;stroke:#ffcc00;stroke-width:0.668132;stroke-linecap:round;stroke-linejoin:round;paint-order:markers stroke fill"
       d="m 126.97989,138.76099 -5.7794,-7.11129 2.72529,-6.78144 c 1.49891,-3.72978 2.83677,-6.90272 2.97303,-7.05097 0.23618,-0.25696 4.84168,5.62729 6.94827,8.87752 l 0.99613,1.53691 -0.80215,7.65547 c -1.2135,11.58122 -0.29002,11.20538 -7.06117,2.8738 z"
       id="path4378"
       transform="matrix(0.26458333,0,0,0.26458333,61.437515,134.79388)" />
    <path
       style="fill:#ddff55;stroke:#d4ff2a;stroke-width:0.668132;stroke-linecap:round;stroke-linejoin:round;paint-order:markers stroke fill"
       d="m 115.17729,124.3624 c -7.80887,-9.42128 -7.61272,-9.13407 -8.00618,-11.72258 -0.88872,-5.84676 -1.20282,-4.65354 2.8706,-10.90483 2.7149,-4.166442 3.26367,-4.716366 3.99693,-4.005343 0.60451,0.586172 4.70204,1.79563 6.08344,1.79563 1.8611,0 4.34135,-1.333291 5.17224,-2.780405 0.45822,-0.798057 0.75171,-2.184627 0.89197,-4.214062 l 0.20904,-3.024647 8.68511,-4.625674 c 7.61297,-4.054652 9.66247,-4.970056 16.60232,-7.415401 7.38148,-2.600952 7.94213,-2.746106 8.28545,-2.145102 0.20254,0.354543 0.84555,1.175449 1.42891,1.824234 0.94243,1.048127 1.35622,1.217147 3.71231,1.51637 1.45841,0.185217 3.88467,0.341671 5.39169,0.347674 l 2.74004,0.01092 v 14.142135 14.142131 l -3.62393,0.0276 c -1.99315,0.0152 -9.35148,0.15179 -16.35184,0.30356 -12.68995,0.27512 -12.73583,0.27884 -15.37957,1.24904 -3.88261,1.42485 -10.26285,4.52131 -11.52469,5.59317 -0.85316,0.7247 -1.7079,2.45517 -3.87172,7.83848 -1.52727,3.79965 -2.89068,6.90845 -3.02981,6.90845 -0.13912,0 -2.06616,-2.18761 -4.28231,-4.86136 z"
       id="path4528"
       transform="matrix(0.26458333,0,0,0.26458333,61.437515,134.79388)" />
    <path
       style="fill:#ddff55;stroke:#d4ff2a;stroke-width:0.668132;stroke-linecap:round;stroke-linejoin:round;paint-order:markers stroke fill"
       d="m 226.68289,123.07013 c -1.42806,-3.57305 -2.89126,-6.98119 -3.25156,-7.57364 -0.83606,-1.37479 -4.4455,-3.37518 -10.40764,-5.76801 l -4.60397,-1.84775 -12.72792,-0.26103 c -7.00036,-0.14356 -14.35869,-0.27345 -16.35185,-0.28864 l -3.62392,-0.0276 V 93.215048 79.126644 l 4.33103,-0.219088 c 5.75536,-0.291139 6.75584,-0.60654 8.13627,-2.564975 0.8748,-1.241084 1.25842,-1.523767 1.83256,-1.350371 0.39939,0.120618 3.98769,1.370207 7.974,2.776864 6.16565,2.17568 8.54121,3.24614 15.90991,7.169203 l 8.66205,4.611645 0.18075,3.199296 c 0.19368,3.42836 0.61931,4.386583 2.60749,5.87033 1.52788,1.14023 5.37545,0.993438 8.26765,-0.315425 1.21938,-0.551829 2.27445,-0.94034 2.3446,-0.863357 0.0701,0.07698 1.49873,2.225824 3.17463,4.775204 2.44215,3.71499 3.0471,4.89481 3.0471,5.94268 0,2.26157 -0.74614,6.356 -1.32601,7.27653 -0.47342,0.75153 -11.40711,14.15216 -11.53431,14.13676 -0.0244,-0.003 -1.2128,-2.92877 -2.64086,-6.50181 z"
       id="path4567"
       transform="matrix(0.26458333,0,0,0.26458333,61.437515,134.79388)" />
    <path
       style="fill:#80ff80;stroke:#55ff55;stroke-width:0.668132;stroke-linecap:round;stroke-linejoin:round;paint-order:markers stroke fill"
       d="m 118.97071,21.717436 c -2.91681,-0.349438 -7.17271,-0.749037 -9.45755,-0.887999 -2.28484,-0.138962 -4.16042,-0.348112 -4.16795,-0.464777 -0.008,-0.116664 -0.23133,-2.757491 -0.49733,-5.868503 -0.36487,-4.267462 -0.38321,-5.7218675 -0.0747,-5.9230634 0.8353,-0.5447194 7.61701,-2.5095683 11.72265,-3.3963762 3.91313,-0.8452268 4.91539,-0.9165888 12.9047,-0.9188311 8.49187,-0.00238 10.85321,0.1977719 18.93318,1.604837 l 2.31419,0.4029986 -7.17654,3.2609437 c -10.42285,4.7360344 -10.41587,4.7317984 -14.8815,9.0247994 -2.23078,2.144546 -4.11444,3.877155 -4.18591,3.850243 -0.0715,-0.02691 -2.51643,-0.334835 -5.43325,-0.684272 z"
       id="path4680"
       transform="matrix(0.26458333,0,0,0.26458333,61.437515,134.79388)" />
    <path
       style="fill:#80ff80;stroke:#55ff55;stroke-width:0.668132;stroke-linecap:round;stroke-linejoin:round;paint-order:markers stroke fill"
       d="m 220.08698,18.453675 c -3.71335,-3.660228 -4.09678,-3.933095 -8.48528,-6.038467 -2.52791,-1.212756 -6.54278,-3.070242 -8.92194,-4.1277453 -5.03802,-2.2393323 -5.23215,-2.0230995 2.91153,-3.2428938 4.40985,-0.6605258 6.7626,-0.7928301 13.96536,-0.7853282 8.01301,0.00835 8.97996,0.078475 12.9047,0.9359224 2.33345,0.5097953 5.91318,1.4677707 7.95495,2.1288341 l 3.71231,1.2019338 -0.0137,2.631326 c -0.008,1.447228 -0.14171,4.18254 -0.29815,6.07847 l -0.28445,3.447146 h -1.91188 c -1.50129,0 -13.29965,1.055275 -16.93724,1.514908 -0.48826,0.0617 -1.91071,-1.097045 -4.59619,-3.744106 z"
       id="path4719"
       transform="matrix(0.26458333,0,0,0.26458333,61.437515,134.79388)" />
    <path
       style="fill:#d4aa00;stroke:#aa8800;stroke-width:0.668132;stroke-linecap:round;stroke-linejoin:round;paint-order:markers stroke fill"
       d="M 71.134049,50.823299 C 69.309538,44.141823 69.225244,38.521015 70.875306,33.570157 73.401831,25.989555 78.06621,21.265029 88.459882,15.758831 l 4.127011,-2.186344 0.379338,1.345484 c 0.869075,3.082544 1.813399,8.436332 1.62232,9.197649 -0.205006,0.81681 -9.055363,14.184454 -13.675805,20.656035 -2.212343,3.098699 -7.84323,8.791682 -8.695786,8.791682 -0.184079,0 -0.671389,-1.233017 -1.082911,-2.740038 z"
       id="path4984"
       transform="matrix(0.26458333,0,0,0.26458333,61.437515,134.79388)" />
    <path
       style="fill:#d4aa00;stroke:#aa8800;stroke-width:0.668132;stroke-linecap:round;stroke-linejoin:round;paint-order:markers stroke fill"
       d="m 273.36382,50.860294 c -3.55332,-3.293483 -5.09091,-5.335665 -13.74688,-18.258148 l -5.49335,-8.201025 0.1918,-1.858365 c 0.30851,-2.98919 1.7087,-8.577397 2.14916,-8.577397 0.70549,0 7.35001,3.546092 10.33813,5.517325 3.47289,2.291024 7.68656,6.669625 9.2609,9.6234 2.60036,4.878778 3.60959,10.185032 2.92113,15.358509 -0.39034,2.933214 -1.59255,8.085761 -2.09685,8.986908 -0.16955,0.30296 -1.29196,-0.522343 -3.52404,-2.591207 z"
       id="path5023"
       transform="matrix(0.26458333,0,0,0.26458333,61.437515,134.79388)" />
    <path
       style="fill:#aa4400;stroke:#aa4400;stroke-width:0.668132;stroke-linecap:round;stroke-linejoin:round;paint-order:markers stroke fill"
       d="M 112.0741,136.2481 C 102.27766,120.43839 95.780917,108.19018 87.156966,89.272229 82.523909,79.108913 75.218715,62.428055 73.889831,58.977732 l -0.97849,-2.540561 3.855298,-3.591618 C 80.90527,48.989983 82.72535,46.563695 92.273411,32.17397 l 4.691484,-7.070455 -0.215733,-2.652263 c -0.17923,-2.2035 -1.101315,-6.832335 -1.840265,-9.238061 -0.137124,-0.446424 0.618361,-0.914896 3.370623,-2.090104 1.95105,-0.833092 3.62447,-1.4376042 3.71871,-1.3433599 0.0942,0.094244 0.39969,2.7824359 0.67877,5.9737599 l 0.50741,5.802407 -1.54186,2.480305 c -3.645183,5.863784 -5.083562,9.986547 -5.120933,14.677896 -0.01174,1.474187 -0.20928,1.811619 -2.690672,4.596194 -4.011404,4.501527 -4.407663,5.197755 -4.770861,8.382394 -0.17278,1.514997 -0.330072,4.7838 -0.349538,7.264012 l -0.03539,4.509475 3.279401,5.726118 c 4.862777,8.490825 8.899373,15.353961 10.626713,18.06783 1.42093,2.232449 5.72401,6.771947 7.69237,8.11499 l 0.84886,0.579195 -3.00621,4.525527 c -1.65341,2.48904 -3.20732,4.90751 -3.45312,5.37438 -0.8069,1.5326 0.24155,9.17943 1.52773,11.14239 0.31768,0.48484 3.22263,4.08519 6.45543,8.00077 l 5.87783,7.11924 -1.48919,3.97793 c -0.81906,2.18787 -1.613,4.17826 -1.76431,4.42309 -0.18044,0.29197 -1.28049,-1.17733 -3.19656,-4.26953 z"
       id="path5136"
       transform="matrix(0.26458333,0,0,0.26458333,61.437515,134.79388)" />
    <path
       style="fill:#aa4400;stroke:#aa4400;stroke-width:0.668132;stroke-linecap:round;stroke-linejoin:round;paint-order:markers stroke fill"
       d="m 233.39563,140.15641 c -0.18257,-0.47101 -0.96114,-2.47147 -1.73015,-4.44546 l -1.39821,-3.58909 1.3082,-1.53744 c 0.71951,-0.84559 3.62161,-4.36563 6.4491,-7.82232 5.60985,-6.85819 5.62988,-6.89801 6.26044,-12.4474 0.43088,-3.79197 0.29304,-4.17138 -3.64497,-10.03379 -1.48424,-2.209537 -2.69861,-4.136862 -2.69861,-4.282947 0,-0.146081 0.64208,-0.710568 1.42684,-1.254411 1.87353,-1.298357 5.37874,-5.065621 6.84687,-7.358747 1.39008,-2.171224 6.55358,-10.993572 10.88776,-18.602819 l 3.11239,-5.464224 -0.009,-3.728164 c -0.005,-2.050489 -0.16329,-5.313932 -0.35172,-7.252097 -0.39233,-4.035413 -0.51139,-4.258049 -4.7586,-8.898742 -2.2498,-2.458232 -2.65874,-3.095435 -2.65874,-4.142829 0,-3.790079 -0.76392,-6.716445 -2.82089,-10.805967 -1.13278,-2.252129 -2.47553,-4.702299 -2.98389,-5.444822 l -0.92429,-1.350042 0.42043,-5.62224 c 0.23124,-3.092232 0.53658,-5.810178 0.67855,-6.03988 0.18491,-0.2992035 1.25434,0.0077 3.7711,1.082396 l 3.51299,1.500037 -0.84922,3.415012 c -0.46707,1.878256 -0.94153,4.732898 -1.05435,6.343647 l -0.20513,2.928635 6.56291,9.799287 c 8.62948,12.884948 9.71123,14.294481 13.77917,17.95437 1.89593,1.705754 3.44715,3.301407 3.44715,3.545896 0,1.507577 -15.88535,37.23002 -21.92296,49.299621 -4.61039,9.21649 -15.35617,28.09868 -19.26189,33.84647 l -0.85921,1.26444 z"
       id="path5253"
       transform="matrix(0.26458333,0,0,0.26458333,61.437515,134.79388)" />
    <path
       style="fill:#88aa00;stroke:#88aa00;stroke-width:0.668132;stroke-linecap:round;stroke-linejoin:round;paint-order:markers stroke fill"
       d="m 250.55819,72.396111 c -0.5803,-7.347037 -3.45463,-11.559675 -7.88728,-11.559675 -1.04558,0 -1.90106,-0.03027 -1.90106,-0.06727 0,-0.037 2.34671,-3.733451 5.21492,-8.214343 2.8682,-4.480891 5.37528,-8.408313 5.5713,-8.727605 0.30009,-0.488817 0.74692,-0.123692 2.82843,2.311204 1.35962,1.590454 2.58906,3.097968 2.73208,3.350031 0.31216,0.550125 0.97012,7.666738 0.97436,10.538986 0.003,2.319658 -0.32386,3.067892 -4.5184,10.329683 -1.46017,2.527907 -2.68693,4.638694 -2.72615,4.690638 -0.0392,0.05194 -0.16891,-1.141298 -0.2882,-2.651649 z"
       id="path5670"
       transform="matrix(0.26458333,0,0,0.26458333,61.437515,134.79388)" />
    <path
       style="fill:#88aa00;stroke:#88aa00;stroke-width:0.668132;stroke-linecap:round;stroke-linejoin:round;paint-order:markers stroke fill"
       d="m 97.416783,74.006489 c -0.381854,-0.645971 -2.012619,-3.468347 -3.623922,-6.271946 l -2.929642,-5.097454 0.0096,-3.211051 c 0.0053,-1.766078 0.15271,-4.690531 0.327647,-6.498786 l 0.318069,-3.287735 1.939881,-2.369119 c 1.066934,-1.303015 2.311609,-2.71262 2.765944,-3.132455 l 0.826063,-0.763337 4.949747,7.797584 c 2.72236,4.288671 5.25108,8.263182 5.61938,8.832247 l 0.66962,1.034664 -1.30359,-0.244557 c -4.41121,-0.827547 -8.155178,4.100426 -8.66612,11.406724 l -0.208377,2.979713 z"
       id="path5709"
       transform="matrix(0.26458333,0,0,0.26458333,61.437515,134.79388)" />
    <path
       style="fill:#ffdd55;stroke:#ffdd55;stroke-width:0.668132;stroke-linecap:round;stroke-linejoin:round;paint-order:markers stroke fill"
       d="m 234.47402,62.115627 c -4.6386,-15.771742 -5.65709,-19.665956 -7.32233,-27.997132 -1.11229,-5.564815 -1.73593,-9.453026 -1.53602,-9.576582 0.4893,-0.302402 12.7791,-1.508379 15.66097,-1.536783 l 2.45132,-0.02416 0.97312,1.414213 c 0.53521,0.777818 1.85877,3.164303 2.94124,5.303301 1.75795,3.473775 2.00244,4.228888 2.28944,7.071068 0.17672,1.750089 0.23245,3.659277 0.12383,4.24264 -0.10862,0.583363 -1.34217,2.890299 -2.74122,5.126524 -2.05028,3.277124 -11.75958,18.371518 -11.98262,18.628562 -0.032,0.03686 -0.41796,-1.156385 -0.85773,-2.651651 z"
       id="path6436"
       transform="matrix(0.26458333,0,0,0.26458333,61.437515,134.79388)" />
    <path
       style="fill:#ffdd55;stroke:#ffdd55;stroke-width:0.668132;stroke-linecap:round;stroke-linejoin:round;paint-order:markers stroke fill"
       d="M 107.47784,55.460532 C 98.86175,42.069345 98.640181,41.676126 98.648397,39.790881 c 0.0207,-4.750209 1.361783,-8.609968 5.211923,-15.000412 l 1.25292,-2.079587 3.21642,0.229493 c 3.95116,0.281916 13.55374,1.243834 14.56025,1.458542 0.72618,0.154907 0.7097,0.29636 -1.10042,9.445929 -1.01071,5.108766 -2.32256,10.879657 -2.91524,12.8242 -0.59267,1.944544 -1.64157,5.524272 -2.33087,7.954951 -2.14206,7.553488 -2.86562,9.899495 -3.05322,9.899495 -0.0996,0 -2.80513,-4.078334 -6.01232,-9.06296 z"
       id="path6734"
       transform="matrix(0.26458333,0,0,0.26458333,61.437515,134.79388)" />
    <path
       style="fill:#d45500;stroke:#d45500;stroke-width:0.472441;stroke-linecap:round;stroke-linejoin:round;paint-order:markers stroke fill"
       d="m 164.5,200.35788 c -15.13152,-1.27677 -27.84566,-4.28552 -35.5,-8.40094 -2.64813,-1.42379 -4.18071,-2.52061 -6.2168,-4.4492 -4.88801,-4.62991 -7.39273,-10.8304 -5.10268,-12.63175 0.51386,-0.40421 1.00471,-0.49916 2.54069,-0.49152 2.1309,0.0106 4.67831,0.62604 13.65379,3.29864 10.28427,3.06232 18.8128,4.74735 28.875,5.705 3.86925,0.36825 27.21434,0.37089 31.24999,0.004 10.7652,-0.97992 18.74283,-2.61739 31.7876,-6.52464 6.88992,-2.06372 8.76115,-2.4882 10.97776,-2.49025 1.55494,-0.001 1.98691,0.0882 2.43448,0.50517 2.04443,1.90467 -0.13895,7.69145 -4.57624,12.12874 -5.70327,5.70327 -16.19566,9.77281 -30.94641,12.00277 -8.71837,1.318 -10.25747,1.41499 -23.67718,1.49203 -7.08125,0.0406 -14.05625,-0.0258 -15.5,-0.14758 z"
       id="path11215"
       transform="matrix(0.26458333,0,0,0.26458333,61.437515,134.79388)" />
    <path
       style="fill:#d45500;stroke:#d45500;stroke-width:0.944882;stroke-linecap:round;stroke-linejoin:round;paint-order:markers stroke fill"
       d="m 160,230.44988 c -14.1255,-1.7021 -23.93819,-4.5876 -30.55091,-8.98373 -6.89945,-4.58675 -11.30429,-13.48049 -7.18819,-14.51357 1.68772,-0.42359 3.57433,-0.032 13.4891,2.80017 17.59223,5.02518 22.93179,5.74724 42.5,5.74724 19.98192,0 25.3208,-0.73158 43.71681,-5.99051 12.45359,-3.56015 14.03318,-3.56101 14.03318,-0.008 0,4.19053 -5.58029,10.76718 -11.7824,13.88616 -6.56181,3.29986 -16.11178,5.73949 -27.7176,7.08073 -8.43523,0.97483 -28.33901,0.96456 -36.49999,-0.0188 z"
       id="path11291"
       transform="matrix(0.26458333,0,0,0.26458333,61.437515,134.79388)" />
    <path
       style="fill:#d45500;stroke:#d45500;stroke-width:0.944882;stroke-linecap:round;stroke-linejoin:round;paint-order:markers stroke fill"
       d="m 167.37106,261.71942 c -14.58395,-1.04614 -28.20046,-4.55193 -34.49177,-8.88047 -5.98056,-4.11474 -10.12928,-11.51415 -7.62232,-13.59474 1.07425,-0.89155 3.88838,-0.40492 13.11527,2.26793 15.44894,4.47527 24.31868,5.73785 40.3088,5.73785 15.78872,0 23.6786,-1.14767 40.06895,-5.82847 10.61552,-3.03161 12.70982,-3.1997 13.4508,-1.07956 0.70417,2.01483 -2.00267,7.18448 -5.34108,10.20067 -9.29073,8.39395 -33.8798,13.01377 -59.48865,11.17679 z"
       id="path11330"
       transform="matrix(0.26458333,0,0,0.26458333,61.437515,134.79388)" />
    <path
       style="fill:#d45500;stroke:#d45500;stroke-width:0.944882;stroke-linecap:round;stroke-linejoin:round;paint-order:markers stroke fill"
       d="m 169.5,290.75253 c -12.00247,-0.81911 -25.83338,-4.05175 -31.4709,-7.35555 -4.74008,-2.77788 -9.01033,-7.78013 -9.7292,-11.39699 -0.7619,-3.83336 1.87898,-3.84574 14.33593,-0.0672 12.44668,3.77543 25.19017,5.38353 39.97765,5.04477 12.23827,-0.28037 16.57122,-1.06266 39.13651,-7.06593 5.39566,-1.43546 6.75276,-1.14321 6.74531,1.45262 -0.006,2.20311 -2.36542,6.17775 -5.23872,8.82626 -8.04991,7.42016 -31.70143,12.06717 -53.75658,10.562 z"
       id="path11369"
       transform="matrix(0.26458333,0,0,0.26458333,61.437515,134.79388)" />
    <path
       style="fill:#d45500;stroke:#d45500;stroke-width:0.944882;stroke-linecap:round;stroke-linejoin:round;paint-order:markers stroke fill"
       d="m 170.5,319.40544 c -14.73243,-1.11211 -27.9749,-5.08982 -33.58305,-10.0875 C 134.52087,307.18269 132,302.89921 132,300.96304 c 0,-2.82968 1.93472,-2.78264 12.5,0.30392 13.49505,3.94248 20.68432,4.98692 34.23688,4.97387 13.22397,-0.0127 20.18443,-1.06711 34.5916,-5.23998 8.13141,-2.35517 10.07709,-2.64529 11.07151,-1.65086 0.86185,0.86185 0.74294,1.82252 -0.57556,4.65 -2.48267,5.32398 -8.43321,9.40574 -17.45655,11.9743 -10.32139,2.93807 -24.47007,4.29154 -35.86788,3.43115 z"
       id="path11408"
       transform="matrix(0.26458333,0,0,0.26458333,61.437515,134.79388)" />
    <path
       style="fill:#d45500;stroke:#d45500;stroke-width:0.944882;stroke-linecap:round;stroke-linejoin:round;paint-order:markers stroke fill"
       d="m 165.5,346.977 c -15.95284,-2.22549 -25.51988,-6.89574 -28.84878,-14.08281 -0.99281,-2.14348 -1.10415,-2.79791 -0.62749,-3.68854 0.50591,-0.9453 0.87435,-1.04662 2.90286,-0.79825 1.27787,0.15646 5.81091,1.28648 10.07341,2.51116 11.04803,3.17425 15.75454,3.91174 26.79484,4.19863 13.0905,0.34017 19.13415,-0.49765 33.81876,-4.68821 8.99068,-2.56568 11.0521,-2.66319 11.2965,-0.53437 0.23738,2.0678 -1.62414,5.45105 -4.45749,8.10132 -4.18178,3.91157 -10.90705,6.49989 -22.20262,8.54503 -6.33443,1.14689 -21.95613,1.38382 -28.74999,0.43604 z"
       id="path11447"
       transform="matrix(0.26458333,0,0,0.26458333,61.437515,134.79388)" />
    <path
       style="fill:#d45500;stroke:#d45500;stroke-width:0.944882;stroke-linecap:round;stroke-linejoin:round;paint-order:markers stroke fill"
       d="m 170.25,374.95312 c -14.11296,-2.00207 -22.24194,-4.82942 -26.6679,-9.27542 -4.10719,-4.12578 -5.3287,-8.50536 -2.46424,-8.83523 0.75232,-0.0866 4.57732,0.75483 8.5,1.86992 22.75203,6.4677 34.78747,6.53383 56.60138,0.31098 8.70849,-2.48426 9.84997,-2.64491 10.78535,-1.51785 0.94356,1.13693 -0.69788,4.9594 -3.34481,7.78919 -3.72667,3.98411 -10.68852,6.89183 -20.90979,8.73328 -4.28226,0.77149 -19.24594,1.38675 -22.49999,0.92513 z"
       id="path11486"
       transform="matrix(0.26458333,0,0,0.26458333,61.437515,134.79388)" />
    <path
       style="fill:#d45500;stroke:#d45500;stroke-width:0.944882;stroke-linecap:round;stroke-linejoin:round;paint-order:markers stroke fill"
       d="m 173.5,399.1766 c -10.05645,-1.01583 -19.1116,-3.55189 -23.69609,-6.63654 -6.35611,-4.27667 -8.85104,-11.411 -3.65957,-10.46463 0.88311,0.16098 4.26502,1.05219 7.51535,1.98045 9.75877,2.787 15.09036,3.73897 22.59031,4.03355 8.18268,0.3214 15.08833,-0.66412 25.34175,-3.61658 10.80366,-3.11088 11.90824,-3.19431 11.90824,-0.89945 0,3.12594 -4.16945,7.97876 -8.92616,10.38917 -7.10909,3.60245 -22.10986,6.1195 -31.07383,5.21403 z"
       id="path11525"
       transform="matrix(0.26458333,0,0,0.26458333,61.437515,134.79388)" />
  </g>
</svg>
